 <svg  version="1.0" xmlns="http://www.w3.org/2000/svg"  width="300.000000pt" height="300.000000pt" viewBox="0 0 300.000000 300.000000"  preserveAspectRatio="xMidYMid meet">  <g transform="translate(0.000000,300.000000) scale(0.100000,-0.100000)" fill="#161ddf" stroke="none"> <path d="M899 2075 c-29 -16 -49 -60 -49 -106 0 -18 -5 -28 -12 -26 -7 1 -14 -7 -16 -18 -3 -21 14 -48 61 -98 33 -35 31 -41 -6 -22 -26 13 -27 13 -27 -11 0 -22 -4 -24 -50 -24 -38 0 -69 -10 -134 -42 -47 -23 -83 -45 -81 -49 3 -3 -16 -19 -40 -35 -51 -32 -52 -37 -35 -159 22 -151 65 -241 133 -274 38 -19 39 -19 72 0 18 11 39 27 45 35 10 11 9 14 -8 14 -11 0 -28 -12 -38 -27 l-18 -28 -9 35 c-5 19 -9 43 -10 53 -1 10 -6 16 -13 13 -23 -9 -32 12 -42 109 -5 55 -9 102 -7 103 2 2 17 -6 34 -19 24 -18 31 -30 31 -58 1 -27 7 -41 25 -54 l25 -18 0 36 c0 19 3 35 6 35 20 0 62 -44 68 -71 5 -26 1 -35 -21 -52 -15 -12 -33 -22 -41 -24 -8 -1 -22 -9 -31 -17 -14 -15 -14 -16 2 -16 10 0 20 6 23 14 4 11 12 10 42 -5 44 -23 64 -24 102 -4 15 8 76 26 134 40 59 13 116 30 126 35 24 13 26 58 6 145 -8 33 -11 62 -6 65 5 3 -7 37 -25 77 -32 68 -35 72 -84 90 -62 21 -65 40 -21 109 17 27 33 69 36 96 6 45 9 49 32 46 39 -5 38 19 -2 43 -20 11 -36 25 -36 29 0 13 -46 38 -81 44 -21 4 -44 0 -60 -9z m107 -52 c36 -23 30 -60 -27 -178 -16 -33 -29 -70 -29 -83 0 -25 30 -59 64 -72 39 -15 76 -72 87 -136 21 -122 25 -163 18 -177 -10 -17 -116 -54 -126 -44 -4 5 -2 17 5 27 23 37 15 96 -19 135 -17 19 -36 35 -43 35 -7 0 -30 13 -52 29 -56 41 -73 44 -166 26 -111 -21 -131 -40 -134 -127 -2 -91 -3 -93 -14 -82 -10 10 -19 59 -27 152 l-5 63 43 40 c64 59 169 109 232 109 34 0 107 45 107 66 0 9 -9 28 -19 43 -28 39 -34 73 -21 120 21 79 62 97 126 54z m-158 -481 c17 -16 52 -37 77 -47 26 -9 43 -20 38 -24 -4 -4 -40 -20 -79 -35 l-72 -27 -96 63 -96 62 78 13 c42 8 82 15 87 17 22 9 34 5 63 -22z m132 -125 c0 -42 -1 -43 -49 -60 -27 -9 -63 -17 -80 -17 -27 0 -31 3 -31 28 0 27 14 35 158 91 1 1 2 -18 2 -42z"/> <path d="M336 1762 c19 -17 145 -102 151 -102 12 0 -31 41 -64 61 -19 12 -31 24 -28 28 4 3 46 9 93 12 86 5 85 6 -37 7 -69 1 -121 -2 -115 -6z"/> <path d="M1108 1753 c23 -2 59 -2 80 0 20 2 1 4 -43 4 -44 0 -61 -2 -37 -4z"/> <path d="M1240 1750 c8 -5 33 -10 54 -10 72 0 32 -8 -73 -13 -57 -4 -106 -9 -109 -12 -3 -3 201 -5 454 -5 252 0 538 -3 634 -6 96 -4 173 -4 170 -1 -3 3 -88 8 -190 12 -102 3 -207 8 -235 10 -27 3 -187 9 -355 15 -168 6 -318 13 -335 15 -22 4 -26 2 -15 -5z"/> <path d="M1200 1616 c-6 -8 -10 -25 -8 -38 2 -19 10 -23 46 -26 58 -4 53 -22 -7 -22 -31 0 -53 -5 -61 -15 -7 -9 -11 -17 -9 -18 2 -2 38 0 79 3 l75 5 0 35 c0 34 -1 35 -43 38 -57 4 -43 22 17 22 31 0 53 5 61 15 11 13 3 15 -63 15 -53 0 -78 -4 -87 -14z"/> <path d="M1352 1568 c-12 -35 -22 -66 -22 -70 0 -17 44 -1 53 19 8 19 18 23 54 23 50 0 86 28 81 63 -3 20 -10 22 -74 25 l-70 3 -22 -63z m118 22 c0 -5 -10 -10 -23 -10 -13 0 -28 -5 -35 -12 -9 -9 -12 -9 -12 3 0 9 3 19 7 22 10 11 63 8 63 -3z"/> <path d="M1544 1613 c-5 -16 -30 -83 -40 -108 -7 -17 126 -9 144 9 15 15 12 16 -36 16 -36 0 -51 4 -46 11 3 6 17 9 30 6 15 -2 30 3 40 14 16 18 16 19 -9 19 -14 0 -29 -4 -32 -10 -12 -20 -26 -10 -15 10 8 15 21 20 54 20 27 0 48 6 56 15 11 13 3 15 -64 15 -64 0 -78 -3 -82 -17z"/> <path d="M1691 1571 c-11 -32 -21 -62 -21 -67 0 -14 143 -1 148 14 2 8 -11 12 -48 12 -34 0 -49 4 -44 11 3 6 17 9 29 7 13 -3 33 3 46 13 l24 19 -30 0 c-17 0 -37 -6 -44 -12 -10 -11 -12 -9 -9 7 2 16 12 21 50 23 25 2 52 10 58 18 11 12 2 14 -62 14 l-75 0 -22 -59z"/> <path d="M1852 1568 c-12 -35 -22 -65 -22 -68 0 -11 128 6 143 18 23 19 48 78 41 96 -5 12 -21 16 -73 16 l-67 0 -22 -62z m113 22 c8 -13 -39 -60 -60 -60 -18 0 -18 -1 -4 39 8 23 17 31 34 31 13 0 27 -4 30 -10z"/> <path d="M2040 1616 c-6 -8 -10 -25 -8 -38 2 -19 10 -23 46 -26 58 -4 53 -22 -7 -22 -31 0 -53 -5 -61 -15 -7 -9 -11 -17 -9 -19 2 -2 38 0 79 3 l75 6 0 35 c0 34 -1 35 -45 41 -52 6 -37 17 29 21 25 2 46 9 49 16 6 19 -132 17 -148 -2z"/> <path d="M2212 1618 c-18 -18 -14 -30 8 -23 24 8 25 -1 5 -48 -20 -49 -19 -57 8 -53 16 2 27 16 42 54 15 40 25 52 41 52 12 0 24 7 28 15 4 12 -6 15 -57 15 -36 0 -68 -5 -75 -12z"/> <path d="M2355 1578 c-22 -29 -45 -60 -52 -69 -11 -14 -6 -15 43 -13 30 1 62 8 69 14 12 10 15 9 15 -2 0 -11 7 -14 23 -11 23 5 24 6 13 66 -10 59 -13 62 -41 65 -26 2 -36 -4 -70 -50z m67 -18 c4 -27 2 -30 -24 -30 l-29 0 23 30 c12 17 23 30 24 30 1 0 4 -13 6 -30z"/> <path d="M2516 1573 c-10 -32 -21 -63 -23 -69 -3 -8 5 -10 23 -6 15 3 29 13 31 23 7 24 12 24 37 0 22 -20 76 -37 76 -24 0 5 -9 14 -20 21 -28 17 -25 26 11 39 25 10 30 16 27 40 -3 27 -4 28 -74 31 l-70 3 -18 -58z m114 17 c0 -5 -10 -10 -23 -10 -13 0 -28 -5 -35 -12 -13 -13 -15 -8 -6 16 7 18 64 23 64 6z"/> <path d="M1220 1395 c0 -44 1 -45 33 -45 38 0 57 15 57 45 0 30 -19 45 -57 45 -32 0 -33 -1 -33 -45z m58 26 c21 -13 10 -46 -16 -49 -19 -3 -22 1 -22 27 0 31 13 39 38 22z"/> <path d="M1440 1395 l0 -45 41 0 c24 0 38 4 34 10 -3 6 -17 10 -31 10 -13 0 -24 5 -24 10 0 6 11 10 25 10 14 0 25 5 25 10 0 6 -11 10 -25 10 -34 0 -32 18 3 23 22 3 20 4 -10 6 l-38 1 0 -45z"/> <path d="M1640 1395 c0 -45 0 -45 36 -45 21 0 33 4 29 10 -3 6 -15 10 -26 10 -15 0 -19 7 -19 35 0 19 -4 35 -10 35 -5 0 -10 -20 -10 -45z"/> <path d="M1830 1395 c0 -25 5 -45 10 -45 6 0 10 20 10 45 0 25 -4 45 -10 45 -5 0 -10 -20 -10 -45z"/> <path d="M1990 1398 c10 -24 24 -43 31 -43 7 0 20 19 30 43 14 32 15 42 5 42 -7 0 -18 -15 -23 -32 l-10 -33 -13 33 c-6 17 -18 32 -25 32 -11 0 -10 -9 5 -42z"/> <path d="M2195 1395 l0 -45 38 0 c20 0 37 5 37 10 0 6 -13 10 -30 10 -16 0 -30 5 -30 10 0 6 11 10 25 10 14 0 25 5 25 11 0 5 -9 9 -20 7 -31 -5 -27 16 6 23 26 6 26 7 -11 8 l-40 1 0 -45z"/> <path d="M2392 1395 c1 -31 5 -45 15 -45 7 0 13 7 13 15 0 8 4 15 9 15 5 0 11 -7 15 -15 3 -8 13 -15 22 -15 13 0 14 3 5 14 -8 10 -9 21 -3 33 15 29 3 43 -38 43 l-38 0 0 -45z m61 29 c9 -10 -4 -34 -18 -34 -17 0 -28 17 -20 30 7 11 28 13 38 4z"/> <path d="M2600 1432 c0 -5 7 -17 15 -28 8 -10 15 -27 15 -36 0 -22 20 -24 20 -3 0 9 7 29 15 45 9 17 11 30 6 30 -6 0 -16 -10 -22 -22 l-12 -22 -8 22 c-8 21 -29 31 -29 14z"/> <path d="M1170 1331 c0 -29 -2 -32 -15 -21 -12 10 -15 9 -15 -6 0 -26 14 -46 30 -42 14 3 47 -68 37 -78 -3 -3 -19 2 -36 11 -31 15 -42 44 -18 46 7 0 7 3 -3 7 -8 4 -28 16 -43 26 -22 15 -31 16 -36 7 -5 -8 -19 -10 -37 -6 l-29 7 25 -21 c14 -12 61 -45 105 -75 44 -30 93 -66 109 -80 16 -14 30 -26 32 -26 2 0 -4 17 -13 38 -8 20 -28 78 -44 127 -36 111 -49 134 -49 86z"/> <path d="M585 1205 c-4 -11 -16 -40 -26 -64 -11 -24 -17 -46 -15 -49 3 -2 32 17 66 43 64 49 72 63 26 45 -20 -7 -28 -7 -31 3 -2 6 -5 19 -8 27 -4 12 -6 11 -12 -5z"/> </g> </svg> 