<svg xmlns="http://www.w3.org/2000/svg" version="1.1" xmlns:xlink="http://www.w3.org/1999/xlink" xmlns:svgjs="http://svgjs.dev/svgjs" width="1500" height="1500" viewBox="0 0 1500 1500"><rect width="1500" height="1500" fill="#000000"></rect><g transform="matrix(0.6666666666666666,0,0,0.6666666666666666,249.39393939393932,570.2070307690988)"><svg viewBox="0 0 396 142" data-background-color="#e0d9d0" preserveAspectRatio="xMidYMid meet" height="537" width="1500" xmlns="http://www.w3.org/2000/svg" xmlns:xlink="http://www.w3.org/1999/xlink"><g id="tight-bounds" transform="matrix(1,0,0,1,0.24000000000003752,0.3145296949384999)"><svg viewBox="0 0 395.5199999999999 141.37094061012303" height="141.37094061012303" width="395.5199999999999"><g><svg viewBox="0 0 683.8568880560824 244.43135999999998" height="141.37094061012303" width="395.5199999999999"><g transform="matrix(1,0,0,1,0,53.2512907049347)"><svg viewBox="0 0 395.52 137.92877859013058" height="137.92877859013058" width="395.52"><g id="textblocktransform"><svg viewBox="0 0 395.52 137.92877859013058" height="137.92877859013058" width="395.52" id="textblock"><g><svg viewBox="0 0 395.52 74.39219243986254" height="74.39219243986254" width="395.52"><g transform="matrix(1,0,0,1,0,0)"><svg width="395.52" viewBox="0.25 -33.85 218.23 41.050000000000004" height="74.39219243986254" data-palette-color="#be959f"><path d="M26.9 5.9L26.9 5.9Q24.45 5.9 23.53 4.8 22.6 3.7 22.6 2.05L22.6 2.05Q22.6 0.45 23.2-1.4 23.8-3.25 24.63-4.93 25.45-6.6 26-7.65L26-7.65Q20.9-1 16.6 1.1L16.6 1.1Q15.25 1.75 14 1.75L14 1.75Q12 1.75 10.88 0.3 9.75-1.15 9.75-3.1L9.75-3.1Q9.75-3.35 9.75-3.6 9.75-3.85 9.8-4.05L9.8-4.05Q10.15-6.35 11.23-9.05 12.3-11.75 13.65-14.53 15-17.3 16.32-19.93 17.65-22.55 18.5-24.78 19.35-27 19.35-28.5L19.35-28.5Q19.35-30.25 18.32-30.95 17.3-31.65 15.65-31.65L15.65-31.65Q14.05-31.65 12.1-31.1 10.15-30.55 8.2-29.73 6.25-28.9 4.67-28 3.1-27.1 2.2-26.4L2.2-26.4Q1.85-26.1 1.45-26.1L1.45-26.1Q0.95-26.1 0.6-26.73 0.25-27.35 0.25-28.15L0.25-28.15Q0.25-28.8 0.5-29.43 0.75-30.05 1.25-30.45L1.25-30.45Q2.3-31.3 4.5-32.08 6.7-32.85 9.43-33.35 12.15-33.85 14.75-33.85L14.75-33.85Q17.1-33.85 19.05-33.38 21-32.9 22.2-31.78 23.4-30.65 23.4-28.75L23.4-28.75Q23.4-28.15 23.25-27.45L23.25-27.45Q22.95-26.05 21.95-23.9 20.95-21.75 19.58-19.2 18.2-16.65 16.75-14.03 15.3-11.4 14.1-9 12.9-6.6 12.3-4.75L12.3-4.75Q11.8-3.3 11.8-2L11.8-2Q11.8-0.8 12.33-0.03 12.85 0.75 13.95 0.75L13.95 0.75Q15.1 0.75 16.8-0.2L16.8-0.2Q19.2-1.5 21.6-4 24-6.5 26.3-9.63 28.6-12.75 30.73-16 32.85-19.25 34.7-22.18 36.55-25.1 37.95-27.15L37.95-27.15Q38.7-28.2 39.58-28.6 40.45-29 41.1-29L41.1-29Q41.7-29 41.98-28.78 42.25-28.55 41.95-28.25L41.95-28.25Q41.1-27.4 39.6-25.35 38.1-23.3 36.27-20.5 34.45-17.7 32.65-14.5 30.85-11.3 29.33-8.18 27.8-5.05 26.88-2.33 25.95 0.4 25.95 2.25L25.95 2.25Q25.95 3.35 26.35 4.13 26.75 4.9 27.6 5L27.6 5 27.95 5.05 28.1 5.05Q28.7 5.05 29.15 4.6L29.15 4.6Q29.25 4.5 29.4 4.5L29.4 4.5Q29.5 4.5 29.5 4.63 29.5 4.75 29.25 4.9L29.25 4.9Q28.9 5.2 28.2 5.55 27.5 5.9 26.9 5.9ZM44.7 1.65L44.7 1.65Q43.05 1.7 41.05 1.38 39.05 1.05 37.15 0.25 35.25-0.55 33.85-1.85 32.45-3.15 31.95-5.05L31.95-5.05Q33.75-3.45 36.85-2.73 39.95-2 43.15-2L43.15-2Q47.4-2 50.55-2.95L50.55-2.95Q51.45-3.2 52.65-3.78 53.85-4.35 55-5.13 56.15-5.9 56.92-6.85 57.7-7.8 57.7-8.8L57.7-8.8Q57.7-9.5 57.25-10.15 56.8-10.8 55.8-11.45L55.8-11.45Q55.2-11.8 54.07-12.23 52.95-12.65 51.65-13.23 50.35-13.8 49.2-14.58 48.05-15.35 47.37-16.43 46.7-17.5 46.85-18.9L46.85-18.9Q47.1-20.95 48.72-22.98 50.35-25 52.82-26.78 55.3-28.55 58.17-29.9 61.05-31.25 63.82-32.02 66.6-32.8 68.75-32.8L68.75-32.8Q70.95-32.8 72.52-31.95 74.1-31.1 73.85-29.05L73.85-29.05Q73.75-28.15 72.62-26.9 71.5-25.65 69.95-24.15 68.4-22.65 66.87-21 65.35-19.35 64.37-17.65 63.4-15.95 63.5-14.35L63.5-14.35Q62.7-15 62.32-15.8 61.95-16.6 61.95-17.45L61.95-17.45Q61.95-18.65 62.45-19.9 62.95-21.15 63.7-22.28 64.45-23.4 65.1-24.2L65.1-24.2Q66.25-25.6 67.7-26.85 69.15-28.1 70.65-29.15L70.65-29.15Q70.2-29.8 69.1-29.8L69.1-29.8Q67.95-29.8 66.52-29.3 65.1-28.8 63.87-28.23 62.65-27.65 62.15-27.35L62.15-27.35Q60-26.2 57.82-24.75 55.65-23.3 53.82-21.8 52-20.3 50.87-19.03 49.75-17.75 49.65-16.9L49.65-16.9Q49.55-15.85 50.55-15.13 51.55-14.4 53.15-13.8 54.75-13.2 56.3-12.4L56.3-12.4Q58.4-11.35 59.35-10 60.3-8.65 60.3-7.2L60.3-7.2Q60.3-5.4 58.95-3.68 57.6-1.95 55.3-0.8L55.3-0.8Q53.25 0.2 51.02 0.75 48.8 1.3 47.07 1.48 45.35 1.65 44.7 1.65ZM72.95 2.55L72.95 2.55Q69.95 2.55 68.12 2.05 66.3 1.55 65.3 0.88 64.3 0.2 63.75-0.2L63.75-0.2Q63.15-0.75 63.15-0.9L63.15-0.9Q63.15-0.95 63.25-0.95L63.25-0.95Q63.45-0.95 63.72-0.88 64-0.8 64.15-0.7L64.15-0.7Q65.9-0.1 67.17-0.08 68.45-0.05 69.8-0.05L69.8-0.05Q71.45-0.05 73.8-0.35 76.15-0.65 78.72-1.35 81.3-2.05 83.5-3.3L83.5-3.3Q86.45-4.95 88.02-7.2 89.59-9.45 89.59-11.5L89.59-11.5Q89.59-13.7 87.65-15.25 85.7-16.8 81.5-16.8L81.5-16.8Q81.09-16.8 80.65-16.8 80.2-16.8 79.7-16.75L79.7-16.75Q77.7-16.6 75.42-16.03 73.15-15.45 71.32-14.58 69.5-13.7 68.75-12.6L68.75-12.6Q67.5-10.8 66.7-9.43 65.9-8.05 65.3-6.85 64.7-5.65 63.95-4.3L63.95-4.3Q63.7-3.6 63.1-3.6L63.1-3.6Q62.8-3.6 62.8-4L62.8-4Q62.8-4.25 62.85-4.4L62.85-4.4Q63.15-5.55 64.27-7.6 65.4-9.65 67.05-12.2 68.7-14.75 70.52-17.3 72.34-19.85 74-22 75.65-24.15 76.8-25.48 77.95-26.8 78.25-26.8L78.25-26.8Q78.55-26.8 78.75-26.5 78.95-26.2 78.9-25.95L78.9-25.95Q78.9-25.95 78.25-25.15 77.59-24.35 76.62-23.1 75.65-21.85 74.57-20.5 73.5-19.15 72.65-18.07 71.8-17 71.4-16.5L71.4-16.5Q75.84-17.25 80.32-18.3 84.8-19.35 88.84-21.45L88.84-21.45Q91.34-22.75 92.77-24.28 94.2-25.8 94.2-27.05L94.2-27.05Q94.2-28.35 92.55-29.23 90.9-30.1 87.2-30.1L87.2-30.1Q85.7-30.1 83.5-29.75 81.3-29.4 78.77-28.8 76.25-28.2 73.77-27.38 71.3-26.55 69.27-25.6 67.25-24.65 66.05-23.65L66.05-23.65Q65.2-23 65.5-22.5L65.5-22.5Q65.59-22.35 65.59-22.2L65.59-22.2Q65.59-22.1 65.45-22.13 65.3-22.15 65.15-22.25L65.15-22.25Q64.34-22.75 63.95-23.55 63.55-24.35 63.55-25L63.55-25Q63.55-25.25 63.62-25.45 63.7-25.65 63.75-25.8L63.75-25.8Q64.7-27.2 66.8-28.4 68.9-29.6 71.57-30.58 74.25-31.55 77.05-32.27 79.84-33 82.25-33.38 84.65-33.75 86.15-33.75L86.15-33.75Q91.4-33.75 94.22-32.33 97.05-30.9 97.05-28.7L97.05-28.7Q97.05-26.9 95.09-24.8 93.15-22.7 89.05-20.65L89.05-20.65Q87.05-19.6 84.75-18.85 82.45-18.1 80.15-17.55L80.15-17.55Q81.09-17.65 81.97-17.7 82.84-17.75 83.65-17.75L83.65-17.75Q89.2-17.75 91.7-15.93 94.2-14.1 94.2-11.45L94.2-11.45Q94.2-9.55 93-7.43 91.8-5.3 89.62-3.33 87.45-1.35 84.4 0.15L84.4 0.15Q82.25 1.2 80.05 1.7 77.84 2.2 76 2.38 74.15 2.55 72.95 2.55ZM139.24 1.15L139.24 1.15Q138.99 1.15 138.99 0.6L138.99 0.6Q138.99 0.1 139.29-0.8L139.29-0.8Q139.79-2.25 141.06-4.7 142.34-7.15 144.06-10.15 145.79-13.15 147.77-16.35 149.74-19.55 151.67-22.53 153.59-25.5 155.22-27.9 156.84-30.3 157.92-31.7 158.99-33.1 159.24-33.1L159.24-33.1 159.69-33.1Q160.14-33.1 160.14-32.8L160.14-32.8Q160.14-32.5 159.59-31.8L159.59-31.8Q157.49-29.05 155.14-25.63 152.79-22.2 150.47-18.55 148.14-14.9 146.04-11.35 143.94-7.8 142.29-4.7 140.64-1.6 139.69 0.6L139.69 0.6Q139.44 1.15 139.24 1.15ZM118.14 7.2L118.14 7.2Q117.89 7.2 117.89 6.65L117.89 6.65Q117.89 6.15 118.19 5.25L118.19 5.25Q118.69 3.8 120.02 1.28 121.34-1.25 123.19-4.38 125.04-7.5 127.04-10.8L127.04-10.8Q125.94-10.65 124.87-10.5 123.79-10.35 122.79-10.15L122.79-10.15Q116.34-9.05 113.37-7.08 110.39-5.1 110.39-3.45L110.39-3.45Q110.39-2.45 111.34-1.7L111.34-1.7Q111.44-1.6 111.44-1.55L111.44-1.55Q111.44-1.5 111.24-1.5L111.24-1.5Q110.94-1.5 110.79-1.65L110.79-1.65Q108.64-3.25 108.64-5.55L108.64-5.55Q108.64-7.2 109.92-8.85 111.19-10.5 113.92-11.88 116.64-13.25 120.94-14L120.94-14Q123.04-14.4 125.22-14.6 127.39-14.8 129.54-14.75L129.54-14.75Q131.29-17.5 132.94-19.95 134.59-22.4 135.92-24.33 137.24-26.25 138.12-27.35 138.99-28.45 139.19-28.45L139.19-28.45 139.64-28.45Q140.09-28.45 140.09-28.15L140.09-28.15Q140.09-27.85 139.54-27.15L139.54-27.15Q137.64-24.6 135.39-21.38 133.14-18.15 130.89-14.7L130.89-14.7Q133.24-14.55 135.54-14.1L135.54-14.1Q136.44-13.9 137.64-13.55 138.84-13.2 140.02-12.68 141.19-12.15 142.04-11.35 142.89-10.55 143.04-9.45L143.04-9.45Q143.09-9.1 142.97-9.13 142.84-9.15 142.74-9.35L142.74-9.35Q142.54-9.95 141.42-10.3 140.29-10.65 139.06-10.83 137.84-11 137.24-11.05L137.24-11.05Q135.69-11.2 133.99-11.2L133.99-11.2Q131.24-11.2 128.44-10.9L128.44-10.9Q126.29-7.5 124.34-4.23 122.39-0.95 120.92 1.85 119.44 4.65 118.59 6.65L118.59 6.65Q118.34 7.2 118.14 7.2ZM151.79 0.45L151.79 0.45Q149.84 0.45 148.86-0.53 147.89-1.5 147.89-3.05L147.89-3.05Q147.89-4 148.14-4.9 148.39-5.8 148.69-6.5L148.69-6.5Q148.34-6.15 148.01-5.88 147.69-5.6 147.49-5.45L147.49-5.45Q147.29-5.3 147.14-5.3L147.14-5.3Q146.94-5.3 146.94-5.55L146.94-5.55Q146.94-5.9 147.44-6.35L147.44-6.35Q149.19-7.8 150.19-8.93 151.19-10.05 152.29-11L152.29-11Q154.14-12.6 156.24-13.5 158.34-14.4 160.44-14.4L160.44-14.4Q162.64-14.4 163.89-13.35 165.14-12.3 165.14-10.25L165.14-10.25Q165.14-9.1 164.46-7.6 163.79-6.1 162.34-4.5L162.34-4.5Q161.74-3.85 160.99-3.23 160.24-2.6 159.69-2.3L159.69-2.3Q162.14-2.55 164.29-4.03 166.44-5.5 168.14-6.95L168.14-6.95Q168.39-7.1 168.49-7.1L168.49-7.1Q168.74-7.1 168.74-6.85L168.74-6.85Q168.74-6.65 168.49-6.4L168.49-6.4Q166.34-4.35 163.86-2.95 161.39-1.55 158.39-1.6L158.39-1.6Q156.64-0.65 154.96-0.1 153.29 0.45 151.79 0.45ZM154.04-0.95L154.04-0.95Q154.74-0.95 155.54-1.2 156.34-1.45 157.14-1.85L157.14-1.85Q156.84-1.85 156.56-2.15 156.29-2.45 156.29-2.95L156.29-2.95Q156.29-3.95 157.04-5 157.79-6.05 158.89-6.8 159.99-7.55 161.04-7.55L161.04-7.55Q161.64-7.55 162.16-7.23 162.69-6.9 162.74-6.35L162.74-6.35Q163.59-7.3 163.91-8.4 164.24-9.5 164.24-10.45L164.24-10.45Q164.24-11.75 163.41-12.43 162.59-13.1 161.19-13.1L161.19-13.1Q159.84-13.1 158.21-12.15 156.59-11.2 155.16-9.7 153.74-8.2 152.81-6.45 151.89-4.7 151.89-3.1L151.89-3.1Q151.89-0.95 154.04-0.95ZM171.19 0.85L171.19 0.85Q169.58 0.85 168.73-0.1 167.88-1.05 167.88-2.75L167.88-2.75Q167.88-4.35 168.73-6.5L168.73-6.5 168.83-6.75 167.94-5.9Q167.73-5.7 167.48-5.7L167.48-5.7Q167.23-5.7 167.23-5.9L167.23-5.9Q167.23-6.15 167.58-6.5L167.58-6.5Q168.88-7.65 170.26-8.93 171.63-10.2 172.58-11.35L172.58-11.35Q172.23-11.2 171.83-11.2L171.83-11.2Q171.44-11.2 171.23-11.4L171.23-11.4Q170.88-11.65 170.88-12.3L170.88-12.3Q170.88-12.85 171.41-13.45 171.94-14.05 173.58-14.5L173.58-14.5Q173.94-14.6 174.31-14.65 174.69-14.7 175.03-14.75L175.03-14.75Q176.63-17 177.83-18.93 179.03-20.85 179.73-21.5L179.73-21.5Q180.03-21.85 180.81-22.1 181.58-22.35 182.46-22.5 183.33-22.65 183.83-22.65L183.83-22.65Q185.48-22.65 185.48-22.35L185.48-22.35Q185.48-22.15 184.73-21.4L184.73-21.4Q183.48-20.2 181.81-18.43 180.13-16.65 178.38-14.6L178.38-14.6Q179.83-14.4 181.06-13.85 182.28-13.3 182.83-12.45L182.83-12.45Q183.03-12.2 183.03-11.85L183.03-11.85Q183.03-11.45 182.78-11.45L182.78-11.45Q182.58-11.45 182.33-11.7L182.33-11.7Q181.28-12.75 178.83-12.75L178.83-12.75Q178.33-12.75 177.81-12.7 177.28-12.65 176.73-12.55L176.73-12.55Q175.03-10.35 173.63-8.15 172.23-5.95 171.63-4.05L171.63-4.05Q171.33-3.15 171.33-2.4L171.33-2.4Q171.33-1.65 171.69-1.18 172.03-0.7 172.73-0.7L172.73-0.7Q173.19-0.7 173.83-0.95L173.83-0.95Q174.78-1.3 176.03-2.13 177.28-2.95 178.56-4 179.83-5.05 180.96-6.05 182.08-7.05 182.83-7.75 183.58-8.45 183.69-8.55L183.69-8.55Q183.83-8.7 183.94-8.7L183.94-8.7Q184.13-8.7 184.13-8.4L184.13-8.4Q184.13-8.05 183.83-7.75L183.83-7.75Q183.33-7.25 182.31-6.25 181.28-5.25 179.96-4.03 178.63-2.8 177.13-1.7 175.63-0.6 174.11 0.13 172.58 0.85 171.19 0.85ZM186.63 0.5L186.63 0.5Q184.43 0.5 182.96-0.58 181.48-1.65 181.48-3.7L181.48-3.7Q181.48-5.9 182.53-7.8 183.58-9.7 185.33-11.13 187.08-12.55 189.16-13.35 191.23-14.15 193.28-14.15L193.28-14.15Q195.33-14.15 196.33-13.43 197.33-12.7 197.33-11.65L197.33-11.65Q197.33-10.65 196.41-9.53 195.48-8.4 193.73-7.55L193.73-7.55Q192.63-7.05 191.21-6.68 189.78-6.3 188.73-6.3L188.73-6.3Q187.93-6.3 187.93-6.55L187.93-6.55Q187.93-6.75 188.63-6.75L188.63-6.75Q189.28-6.75 190.66-7.13 192.03-7.5 193.33-8.15L193.33-8.15Q194.78-8.95 195.38-9.75 195.98-10.55 195.98-11.2L195.98-11.2Q195.98-11.8 195.51-12.2 195.03-12.6 194.18-12.6L194.18-12.6Q193.38-12.6 192.38-12.15L192.38-12.15Q190.93-11.5 189.41-10.03 187.88-8.55 186.88-6.8 185.88-5.05 185.88-3.45L185.88-3.45Q185.88-2.35 186.51-1.6 187.13-0.85 188.38-0.85L188.38-0.85Q189.68-0.85 191.38-1.68 193.08-2.5 194.83-3.73 196.58-4.95 198.08-6.2 199.58-7.45 200.48-8.3L200.48-8.3Q200.78-8.6 200.93-8.6L200.93-8.6Q201.08-8.6 201.08-8.35L201.08-8.35Q201.08-8 200.78-7.75L200.78-7.75Q198.88-6 196.66-4.1 194.43-2.2 191.91-0.88 189.38 0.45 186.63 0.5ZM203.38 0.25L203.38 0.25Q201.38 0.25 200.58-0.73 199.78-1.7 199.78-3L199.78-3Q199.78-4.25 200.25-5.65 200.73-7.05 201.33-8.3L201.33-8.3Q200.68-7.6 200.08-7.03 199.48-6.45 199.08-6.1L199.08-6.1Q198.88-5.95 198.68-5.95L198.68-5.95Q198.43-5.95 198.43-6.2L198.43-6.2Q198.43-6.45 198.73-6.65L198.73-6.65Q199.78-7.55 201.18-9.1 202.58-10.65 203.78-12.25L203.78-12.25Q204.78-13.55 206.18-15.5 207.58-17.45 209.03-19.63 210.48-21.8 211.53-23.6L211.53-23.6Q211.68-23.9 211.85-24.35 212.03-24.8 212.03-25.15L212.03-25.15Q212.03-25.65 211.63-25.65L211.63-25.65Q211.53-25.65 211.06-25.45 210.58-25.25 210.13-25.05 209.68-24.85 209.58-24.85L209.58-24.85Q209.18-24.85 209.63-25.3L209.63-25.3Q210.43-25.9 211.66-26.48 212.88-27.05 214.18-27.45 215.48-27.85 216.38-27.85L216.38-27.85Q218.48-27.85 218.48-26.5L218.48-26.5Q218.48-25.8 217.83-24.65L217.83-24.65Q217.28-23.75 216.23-22.53 215.18-21.3 213.91-19.93 212.63-18.55 211.43-17.23 210.23-15.9 209.43-14.9L209.43-14.9Q209.23-14.65 208.46-13.6 207.68-12.55 206.71-11.08 205.73-9.6 204.75-7.98 203.78-6.35 203.16-4.88 202.53-3.4 202.53-2.4L202.53-2.4Q202.53-1.05 203.83-1.05L203.83-1.05Q204.68-1.05 205.98-1.55L205.98-1.55Q207.23-2 208.6-2.93 209.98-3.85 211.31-4.9 212.63-5.95 213.66-6.9 214.68-7.85 215.18-8.35L215.18-8.35Q215.48-8.65 215.68-8.65L215.68-8.65Q215.88-8.65 215.88-8.4L215.88-8.4Q215.88-8.15 215.63-7.9L215.63-7.9Q214.83-7.05 213.46-5.7 212.08-4.35 210.41-2.98 208.73-1.6 206.93-0.68 205.13 0.25 203.38 0.25Z" opacity="1" transform="matrix(1,0,0,1,0,0)" fill="#ffffff" class="wordmark-text-0" data-fill-palette-color="primary" id="text-0"></path></svg></g></svg></g><g transform="matrix(1,0,0,1,166.1451456303148,91.95440366229553)"><svg viewBox="0 0 229.37485436968518 45.97437492783505" height="45.97437492783505" width="229.37485436968518"><g transform="matrix(1,0,0,1,0,0)"><svg width="229.37485436968518" viewBox="4.5 -36.4 184.58 37" height="45.97437492783505" data-palette-color="#be959f"><path d="M9.75 0L4.5 0 5-4 5-31 4.5-35 16.65-35Q20.35-35 22.95-33.52 25.55-32.05 26.93-29.7 28.3-27.35 28.3-24.65L28.3-24.65Q28.3-22.85 27.65-21.03 27-19.2 25.63-17.68 24.25-16.15 22.03-15.23 19.8-14.3 16.65-14.3L16.65-14.3 9.25-14.3 9.25-4 9.75 0ZM29.9 0L24.85 0 22.65-4 14.4-15.8 18.25-15.8 21.25-13.05 29.9 0ZM9.25-31.3L9.25-18 16.45-18Q20.25-18 21.98-19.93 23.7-21.85 23.7-24.45L23.7-24.45Q23.7-27.25 21.85-29.28 20-31.3 16.35-31.3L16.35-31.3 9.25-31.3ZM35.8-12.8L35.8-12.8Q35.8-17.75 37.42-20.68 39.05-23.6 41.7-24.85 44.35-26.1 47.35-26.1L47.35-26.1Q50.8-26.1 53.12-24.73 55.45-23.35 56.62-20.83 57.8-18.3 57.8-14.8L57.8-14.8Q57.8-13.8 57.7-12.95 57.6-12.1 57.45-11.35L57.45-11.35 38-11.35 38-12.25 42.5-14.75 53.55-14.75Q53.55-17 53.07-18.75 52.6-20.5 51.25-21.5 49.9-22.5 47.3-22.5L47.3-22.5Q44.6-22.5 43.02-21.33 41.45-20.15 40.77-18.05 40.1-15.95 40.1-13.15L40.1-13.15Q40.1-9.8 40.85-7.75 41.6-5.7 42.85-4.7 44.1-3.7 45.6-3.35 47.1-3 48.6-3L48.6-3Q50.95-3 52.67-3.48 54.4-3.95 55.75-4.75L55.75-4.75 56.55-4.25 56.55-0.65Q55-0.1 53.12 0.25 51.25 0.6 49.05 0.6L49.05 0.6Q46.65 0.6 44.27 0.03 41.9-0.55 40-2 38.1-3.45 36.95-6.08 35.8-8.7 35.8-12.8ZM72.55-3.95L73.35-3.45 73.35 0Q72.85 0.25 72.2 0.43 71.55 0.6 70.5 0.6L70.5 0.6Q69 0.6 67.62 0.13 66.25-0.35 65.35-1.7 64.45-3.05 64.45-5.6L64.45-5.6 64.45-32.4 63.95-36.4 69.15-36.4 68.65-32.4 68.65-5.65Q68.65-4.55 69.17-3.98 69.7-3.4 70.85-3.4L70.85-3.4Q71.4-3.4 71.8-3.55 72.2-3.7 72.55-3.95L72.55-3.95ZM84.34-29.7L84.34-29.7Q83.14-29.7 82.29-30.48 81.44-31.25 81.44-32.6L81.44-32.6Q81.44-33.95 82.29-34.73 83.14-35.5 84.34-35.5L84.34-35.5Q85.54-35.5 86.39-34.73 87.24-33.95 87.24-32.6L87.24-32.6Q87.24-31.25 86.39-30.48 85.54-29.7 84.34-29.7ZM87.74 0L82.54 0 83.04-4 83.04-22.1 77.84-22.1 77.84-25.5 87.74-25.5 87.24-21.5 87.24-4 87.74 0ZM116.49 0L112.54 0 111.79-2.65 111.79-16.25Q111.79-18.25 111.24-19.63 110.69-21 109.09-21.75 107.49-22.5 104.34-22.5L104.34-22.5Q102.49-22.5 100.92-22.15 99.34-21.8 97.89-20.85L97.89-20.85 97.09-21.35 97.09-24.95Q99.29-25.65 101.22-25.88 103.14-26.1 104.79-26.1L104.79-26.1Q109.14-26.1 111.57-24.95 113.99-23.8 114.99-21.58 115.99-19.35 115.99-16.1L115.99-16.1 115.99-4 116.49 0ZM104.09 0.6L104.09 0.6Q101.89 0.6 99.74-0.13 97.59-0.85 96.17-2.63 94.74-4.4 94.74-7.5L94.74-7.5Q94.74-9.9 95.64-11.5 96.54-13.1 98.07-14 99.59-14.9 101.49-15.28 103.39-15.65 105.39-15.65L105.39-15.65Q106.59-15.65 107.62-15.55 108.64-15.45 109.64-15.2L109.64-15.2 112.24-13.35 112.24-11.05Q110.94-11.75 109.47-12.03 107.99-12.3 106.09-12.3L106.09-12.3Q102.59-12.3 100.77-11.28 98.94-10.25 98.94-7.45L98.94-7.45Q98.94-5.15 100.29-4.03 101.64-2.9 104.64-2.9L104.64-2.9Q107.74-2.9 109.57-3.9 111.39-4.9 112.39-6.3L112.39-6.3 113.39-4.05 108.59 0Q107.59 0.25 106.44 0.43 105.29 0.6 104.09 0.6ZM135.29 0.6L135.29 0.6Q133.94 0.6 132.81 0.4 131.69 0.2 130.99 0L130.99 0 125.99-4.15 125.99-7.4Q127.84-4.95 129.94-3.98 132.04-3 134.49-3L134.49-3Q137.04-3 138.76-3.95 140.49-4.9 141.34-7 142.19-9.1 142.19-12.55L142.19-12.55Q142.19-17.45 140.29-19.98 138.39-22.5 134.24-22.5L134.24-22.5Q131.34-22.5 129.24-21.4 127.14-20.3 125.79-18.85L125.79-18.85 125.79-21.65 131.04-25.45Q131.99-25.75 132.99-25.93 133.99-26.1 135.09-26.1L135.09-26.1Q138.19-26.1 140.76-24.65 143.34-23.2 144.91-20.25 146.49-17.3 146.49-12.85L146.49-12.85Q146.49-8.9 145.16-5.85 143.84-2.8 141.34-1.1 138.84 0.6 135.29 0.6ZM127.04 0L123.09 0 123.59-4 123.59-32.4 123.09-36.4 128.29-36.4 127.79-32.4 127.79-2.6 127.04 0ZM161.59-3.95L162.39-3.45 162.39 0Q161.89 0.25 161.24 0.43 160.59 0.6 159.54 0.6L159.54 0.6Q158.04 0.6 156.66 0.13 155.29-0.35 154.39-1.7 153.49-3.05 153.49-5.6L153.49-5.6 153.49-32.4 152.99-36.4 158.19-36.4 157.69-32.4 157.69-5.65Q157.69-4.55 158.21-3.98 158.74-3.4 159.89-3.4L159.89-3.4Q160.44-3.4 160.84-3.55 161.24-3.7 161.59-3.95L161.59-3.95ZM167.08-12.8L167.08-12.8Q167.08-17.75 168.71-20.68 170.33-23.6 172.98-24.85 175.63-26.1 178.63-26.1L178.63-26.1Q182.08-26.1 184.41-24.73 186.73-23.35 187.91-20.83 189.08-18.3 189.08-14.8L189.08-14.8Q189.08-13.8 188.98-12.95 188.88-12.1 188.73-11.35L188.73-11.35 169.28-11.35 169.28-12.25 173.78-14.75 184.83-14.75Q184.83-17 184.36-18.75 183.88-20.5 182.53-21.5 181.18-22.5 178.58-22.5L178.58-22.5Q175.88-22.5 174.31-21.33 172.73-20.15 172.06-18.05 171.38-15.95 171.38-13.15L171.38-13.15Q171.38-9.8 172.13-7.75 172.88-5.7 174.13-4.7 175.38-3.7 176.88-3.35 178.38-3 179.88-3L179.88-3Q182.23-3 183.96-3.48 185.68-3.95 187.03-4.75L187.03-4.75 187.83-4.25 187.83-0.65Q186.28-0.1 184.41 0.25 182.53 0.6 180.33 0.6L180.33 0.6Q177.93 0.6 175.56 0.03 173.18-0.55 171.28-2 169.38-3.45 168.23-6.08 167.08-8.7 167.08-12.8Z" opacity="1" transform="matrix(1,0,0,1,0,0)" fill="#ffffff" class="slogan-text-1" data-fill-palette-color="secondary" id="text-1"></path></svg></g></svg></g></svg></g></svg></g><g transform="matrix(1,0,0,1,439.42552805608244,0)"><svg viewBox="0 0 244.43135999999998 244.43135999999998" height="244.43135999999998" width="244.43135999999998"><g><svg viewBox="0 0 244.43135999999998 244.43135999999998" height="244.43135999999998" width="244.43135999999998"><g transform="matrix(1,0,0,1,101.2211290519823,64.60265593644992)"><svg viewBox="0 0 41.98910189603538 115.22604812710014" height="115.22604812710014" width="41.98910189603538"><g><svg version="1.0" xmlns="http://www.w3.org/2000/svg" xmlns:xlink="http://www.w3.org/1999/xlink" x="0" y="0" viewBox="0 0.278 36.44034983216459 99.99922155814964" enable-background="new 0 0 36.439 100.277" xml:space="preserve" id="dxe-0" width="41.98910189603538" height="115.22604812710014" class="icon-dxe-0" data-fill-palette-color="accent"><path d="M26.47 95.631A4.604 4.604 0 0 0 31.038 100.277 4.6 4.6 0 0 0 35.683 95.71L36.44 5.307C36.477 0.837 33.571 0.336 31.537 0.32 29.495 0.303 25.72 6.033 24.864 11.32 24 16.602 18.891 43.844 26.988 49.207z" fill="#ffffff" data-fill-palette-color="accent"></path><path d="M4.888 95.452L5.506 37.22C2.192 37.193 0.562 33.246 0 30.39L2.006 0.278 4.72 24.584 7.263 0.32 9.974 24.628 13.098 0.369 15.229 24.672 18.349 0.413 19.846 30.556C19.244 33.402 17.782 37.322 14.46 37.295L14.107 95.528A4.61 4.61 0 0 1 9.458 100.096 4.606 4.606 0 0 1 4.888 95.452" fill="#ffffff" data-fill-palette-color="accent"></path></svg></g></svg></g><g id="text-0"><path d="M42.614 78.189v0c-0.634 1.391-1.386 2.209-2.257 2.455-0.861 0.242-1.763 0.148-2.705-0.281v0c-0.91-0.415-1.813-1.032-2.71-1.851-0.9-0.828-1.717-1.692-2.452-2.593-0.742-0.903-1.339-1.648-1.792-2.233v0c2.458 4.627 3.728 8.438 3.81 11.433v0c0.015 0.936-0.14 1.759-0.465 2.47v0c-0.517 1.134-1.332 1.835-2.444 2.102-1.119 0.264-2.233 0.143-3.342-0.362v0c-0.147-0.067-0.292-0.133-0.432-0.198-0.141-0.064-0.263-0.136-0.367-0.213v0c-1.217-0.795-2.454-1.85-3.712-3.167-1.261-1.31-2.504-2.709-3.73-4.197-1.226-1.488-2.416-2.952-3.571-4.392-1.149-1.437-2.244-2.684-3.288-3.74-1.047-1.066-1.997-1.793-2.849-2.181v0c-1-0.456-1.831-0.483-2.494-0.081-0.666 0.408-1.213 1.081-1.64 2.016v0c-0.415 0.91-0.718 1.991-0.909 3.243-0.194 1.258-0.31 2.549-0.348 3.871-0.038 1.322-0.005 2.549 0.099 3.679 0.104 1.131 0.237 2.043 0.401 2.738v0c0.082 0.278 0.073 0.529-0.03 0.753v0c-0.131 0.288-0.422 0.45-0.871 0.485-0.443 0.038-0.892-0.047-1.348-0.254v0c-0.372-0.169-0.702-0.405-0.989-0.707-0.292-0.311-0.485-0.659-0.582-1.043v0c-0.215-0.818-0.258-1.956-0.127-3.414 0.128-1.451 0.404-3.017 0.829-4.696 0.425-1.68 0.975-3.26 1.65-4.74v0c0.611-1.339 1.303-2.502 2.078-3.488 0.775-0.986 1.639-1.676 2.593-2.07 0.951-0.387 1.967-0.334 3.05 0.16v0c0.34 0.155 0.689 0.365 1.049 0.629v0c0.716 0.535 1.556 1.367 2.519 2.496 0.967 1.122 2 2.406 3.098 3.851 1.089 1.449 2.193 2.924 3.313 4.424 1.123 1.51 2.21 2.92 3.263 4.228 1.055 1.302 2.03 2.365 2.923 3.191v0c0.698 0.659 1.416 1.156 2.153 1.492v0c0.686 0.313 1.318 0.419 1.898 0.32 0.577-0.093 1.008-0.454 1.294-1.082v0c0.298-0.654 0.395-1.589 0.292-2.805v0c-0.115-1.701-0.572-3.559-1.373-5.572-0.797-2.02-1.789-4.09-2.975-6.21-1.179-2.117-2.419-4.203-3.718-6.259-1.3-2.056-2.54-3.987-3.721-5.795-1.187-1.811-2.181-3.383-2.983-4.716v0c-0.41-0.698-0.613-1.348-0.609-1.949-0.003-0.605 0.079-1.09 0.246-1.456v0c0.158-0.346 0.336-0.567 0.534-0.662 0.198-0.095 0.346-0.02 0.443 0.225v0c0.259 0.706 0.78 1.753 1.564 3.14 0.778 1.384 1.725 2.958 2.841 4.721 1.122 1.766 2.36 3.576 3.713 5.431 1.353 1.855 2.721 3.625 4.105 5.309 1.381 1.675 2.73 3.13 4.048 4.365 1.311 1.233 2.493 2.089 3.544 2.568v0c0.628 0.286 1.211 0.417 1.749 0.391 0.547-0.029 0.96-0.271 1.236-0.725v0l0.184-0.276 0.062-0.135c0.155-0.34 0.163-0.696 0.023-1.069v0c-0.031-0.084-0.028-0.168 0.009-0.251v0c0.026-0.058 0.075-0.07 0.146-0.039 0.07 0.032 0.115 0.138 0.134 0.317v0c0.082 0.278 0.132 0.66 0.15 1.148 0.015 0.494-0.056 0.911-0.21 1.251z" fill="#ffffff" data-fill-palette-color="accent"></path><path d="M51.474 58.163v0c-0.727 0.727-1.617 1.448-2.667 2.162-1.046 0.709-2.173 1.291-3.381 1.746-1.208 0.455-2.408 0.689-3.599 0.702-1.201 0.012-2.323-0.308-3.367-0.959v0c1.511-0.043 3.125-0.567 4.841-1.572 1.722-1.009 3.309-2.201 4.761-3.577v0c1.928-1.826 3.405-3.631 4.431-5.417v0c0.303-0.5 0.604-1.139 0.904-1.918 0.295-0.774 0.537-1.585 0.724-2.432 0.188-0.847 0.254-1.652 0.201-2.416-0.059-0.769-0.304-1.381-0.735-1.836v0c-0.3-0.317-0.691-0.525-1.171-0.622-0.485-0.103-1.096-0.087-1.832 0.047v0c-0.421 0.098-0.98 0.292-1.675 0.582-0.696 0.29-1.461 0.583-2.296 0.879-0.84 0.301-1.686 0.524-2.537 0.67-0.856 0.141-1.67 0.111-2.442-0.089-0.767-0.195-1.42-0.644-1.959-1.346v0c-0.764-1.042-1.213-2.372-1.348-3.991-0.13-1.613-0.015-3.356 0.345-5.229 0.36-1.874 0.902-3.735 1.625-5.584 0.733-1.848 1.562-3.545 2.486-5.088 0.924-1.544 1.875-2.779 2.851-3.704v0c1.002-0.949 2.043-1.571 3.123-1.865 1.084-0.289 2.008 0.087 2.772 1.129v0c0.346 0.448 0.533 1.198 0.558 2.25 0.026 1.052 0.008 2.252-0.053 3.601-0.062 1.349-0.082 2.726-0.061 4.131 0.011 1.405 0.163 2.702 0.454 3.891 0.286 1.194 0.799 2.134 1.538 2.823v0c-0.644 0.047-1.222-0.031-1.735-0.235-0.513-0.203-0.953-0.499-1.321-0.888v0c-0.513-0.542-0.926-1.204-1.239-1.984-0.312-0.781-0.54-1.589-0.681-2.425-0.142-0.836-0.238-1.573-0.291-2.213v0c-0.084-1.133-0.064-2.296 0.058-3.489 0.122-1.192 0.298-2.349 0.528-3.468v0c-0.485-0.103-0.976 0.08-1.472 0.55v0c-0.527 0.499-1.004 1.168-1.43 2.009-0.436 0.84-0.81 1.654-1.121 2.443-0.305 0.784-0.508 1.354-0.607 1.71v0c-0.483 1.447-0.906 2.967-1.268 4.561-0.362 1.594-0.636 3.124-0.821 4.589-0.185 1.465-0.259 2.728-0.223 3.791 0.041 1.067 0.219 1.815 0.537 2.242v0c0.404 0.519 0.991 0.73 1.761 0.631 0.765-0.104 1.639-0.364 2.622-0.781 0.988-0.411 2.007-0.77 3.057-1.075v0c1.402-0.425 2.611-0.536 3.626-0.334 1.011 0.207 1.828 0.64 2.453 1.3v0c0.77 0.813 1.221 1.904 1.353 3.273 0.127 1.364-0.084 2.8-0.633 4.31v0c-0.5 1.337-1.138 2.61-1.913 3.819-0.775 1.2-1.518 2.213-2.228 3.041-0.705 0.823-1.206 1.375-1.503 1.655z" fill="#ffffff" data-fill-palette-color="accent"></path><path d="M77.323 38.109v0c-1.701 0.802-3.134 1.305-4.299 1.511-1.164 0.206-2.12 0.251-2.867 0.136-0.741-0.118-1.321-0.218-1.742-0.3v0c-0.491-0.15-0.756-0.267-0.795-0.35v0c-0.012-0.025 0.011-0.052 0.068-0.078v0c0.115-0.054 0.261-0.099 0.438-0.137 0.174-0.027 0.316-0.032 0.426-0.013v0c1.153-0.131 2.093-0.359 2.818-0.686 0.729-0.32 1.476-0.66 2.241-1.02v0c0.937-0.441 2.027-1.06 3.271-1.857 1.251-0.799 2.512-1.74 3.786-2.823 1.267-1.08 2.358-2.267 3.273-3.563v0c1.228-1.723 1.989-3.429 2.284-5.117 0.292-1.695 0.164-3.122-0.382-4.282v0c-0.588-1.249-1.643-2.049-3.163-2.399-1.517-0.36-3.463 0.02-5.839 1.14v0c-0.223 0.105-0.462 0.218-0.717 0.338-0.255 0.12-0.52 0.26-0.795 0.421v0c-1.086 0.621-2.196 1.397-3.329 2.328-1.134 0.931-2.1 1.889-2.898 2.872-0.807 0.98-1.274 1.881-1.401 2.704v0c-0.227 1.353-0.383 2.524-0.47 3.514-0.086 0.991-0.141 1.908-0.163 2.752-0.019 0.835-0.059 1.733-0.12 2.696v0c0.04 0.464-0.109 0.776-0.447 0.935v0c-0.172 0.081-0.311 0.01-0.416-0.213v0c-0.066-0.14-0.104-0.262-0.114-0.367v0c-0.141-0.728-0.165-1.822-0.075-3.282 0.091-1.46 0.264-3.134 0.519-5.021 0.252-1.878 0.555-3.781 0.909-5.707 0.357-1.936 0.714-3.731 1.071-5.387 0.363-1.658 0.693-3.017 0.988-4.074 0.299-1.052 0.534-1.618 0.706-1.699v0c0.166-0.078 0.345-0.061 0.538 0.05 0.196 0.118 0.311 0.255 0.345 0.41v0c0 0-0.075 0.312-0.225 0.935-0.156 0.627-0.345 1.424-0.567 2.393-0.215 0.965-0.448 1.975-0.699 3.027-0.245 1.05-0.466 1.995-0.662 2.834-0.193 0.83-0.336 1.443-0.43 1.838v0c2.316-1.613 4.602-3.313 6.859-5.1 2.247-1.791 4.239-3.819 5.974-6.085v0c1.066-1.406 1.801-2.729 2.205-3.97 0.398-1.238 0.43-2.211 0.097-2.919v0c-0.348-0.739-1.105-1.138-2.269-1.197-1.168-0.049-2.8 0.42-4.896 1.408v0c-0.847 0.399-1.846 0.99-2.996 1.773-1.156 0.786-2.368 1.684-3.636 2.694-1.268 1.01-2.492 2.081-3.671 3.213-1.183 1.126-2.221 2.226-3.116 3.302-0.885 1.079-1.535 2.063-1.95 2.951v0c-0.307 0.588-0.31 0.987-0.009 1.196v0c0.096 0.056 0.164 0.125 0.203 0.208v0c0.027 0.057-0.004 0.099-0.093 0.125-0.095 0.029-0.198 0.035-0.308 0.017v0c-0.587-0.074-1.099-0.284-1.535-0.632-0.443-0.344-0.749-0.698-0.921-1.061v0c-0.069-0.147-0.107-0.284-0.113-0.414-0.016-0.133-0.027-0.248-0.034-0.346v0c0.16-1.049 0.677-2.191 1.55-3.428 0.864-1.24 1.924-2.495 3.179-3.763 1.252-1.259 2.575-2.467 3.969-3.622 1.391-1.162 2.716-2.167 3.974-3.018 1.258-0.85 2.311-1.474 3.159-1.873v0c2.969-1.399 5.443-2.074 7.42-2.024 1.981 0.056 3.264 0.705 3.849 1.947v0c0.48 1.019 0.449 2.381-0.095 4.086-0.541 1.711-1.698 3.693-3.471 5.945v0c-0.855 1.127-1.832 2.21-2.931 3.249-1.102 1.033-2.232 2.013-3.391 2.941v0c0.515-0.313 1.011-0.597 1.49-0.854 0.485-0.26 0.954-0.496 1.406-0.709v0c3.141-1.48 5.662-2.037 7.563-1.671 1.901 0.366 3.204 1.297 3.91 2.794v0c0.507 1.077 0.707 2.376 0.599 3.899-0.117 1.519-0.527 3.129-1.229 4.83-0.704 1.694-1.72 3.372-3.047 5.034v0c-0.935 1.172-1.961 2.193-3.078 3.061-1.11 0.866-2.164 1.596-3.161 2.19-1.006 0.591-1.847 1.045-2.522 1.364z" fill="#ffffff" data-fill-palette-color="accent"></path><path d="M149.593 30.748v0c-0.151-0.035-0.187-0.221-0.109-0.557v0c0.07-0.302 0.262-0.706 0.575-1.211v0c0.508-0.815 1.323-1.876 2.444-3.184 1.13-1.313 2.433-2.76 3.907-4.341 1.476-1.587 3.041-3.215 4.695-4.884 1.661-1.667 3.29-3.273 4.886-4.818 1.595-1.538 3.056-2.923 4.384-4.154 1.328-1.231 2.42-2.196 3.277-2.893 0.851-0.706 1.352-1.041 1.503-1.006v0l0.412 0.096c0.274 0.064 0.39 0.188 0.347 0.373v0c-0.043 0.185-0.279 0.452-0.707 0.801v0c-1.673 1.375-3.468 2.939-5.388 4.691-1.912 1.753-3.837 3.576-5.775 5.468-1.932 1.901-3.791 3.782-5.577 5.644-1.779 1.864-3.393 3.625-4.842 5.284-1.441 1.653-2.608 3.081-3.503 4.283v0c-0.229 0.301-0.406 0.437-0.529 0.408zM129.023 31.785v0c-0.151-0.035-0.188-0.217-0.112-0.547v0c0.072-0.309 0.264-0.716 0.577-1.221v0c0.508-0.815 1.345-1.896 2.513-3.245 1.16-1.35 2.529-2.847 4.104-4.49 1.567-1.638 3.196-3.32 4.885-5.046v0c-0.693-0.067-1.379-0.133-2.058-0.197-0.674-0.056-1.331-0.093-1.97-0.112v0c-4.086-0.25-7.175 0.018-9.267 0.804-2.091 0.779-3.253 1.673-3.488 2.681v0c-0.141 0.604 0.024 1.202 0.493 1.797v0c0.047 0.076 0.068 0.128 0.061 0.155v0c-0.008 0.034-0.074 0.037-0.197 0.008v0c-0.178-0.042-0.304-0.121-0.378-0.24v0c-1.084-1.279-1.462-2.618-1.137-4.018v0c0.233-1.002 0.858-1.916 1.875-2.742 1.01-0.828 2.442-1.467 4.298-1.917 1.855-0.45 4.145-0.597 6.871-0.44v0c1.333 0.05 2.68 0.168 4.04 0.355 1.351 0.192 2.679 0.454 3.982 0.786v0c1.453-1.426 2.858-2.77 4.215-4.031 1.348-1.255 2.563-2.376 3.646-3.36 1.083-0.985 1.966-1.752 2.651-2.301 0.692-0.548 1.099-0.807 1.222-0.778v0l0.412 0.096c0.274 0.064 0.39 0.188 0.347 0.373v0c-0.043 0.185-0.282 0.451-0.717 0.799v0c-1.52 1.28-3.196 2.745-5.026 4.395-1.829 1.643-3.67 3.355-5.524 5.136v0c1.405 0.428 2.778 0.943 4.12 1.545v0c0.522 0.244 1.121 0.561 1.797 0.949 0.685 0.384 1.347 0.816 1.987 1.298 0.638 0.489 1.162 1.037 1.569 1.646 0.401 0.607 0.571 1.258 0.511 1.952v0c-0.022 0.219-0.069 0.313-0.141 0.281-0.071-0.038-0.123-0.123-0.158-0.253v0c-0.037-0.399-0.374-0.785-1.011-1.158-0.637-0.372-1.313-0.696-2.03-0.971-0.722-0.284-1.262-0.482-1.619-0.594v0c-0.924-0.316-1.904-0.595-2.941-0.836v0c-1.674-0.39-3.386-0.691-5.137-0.904v0c-1.793 1.767-3.515 3.51-5.166 5.23-1.652 1.72-3.125 3.326-4.42 4.819-1.296 1.499-2.347 2.798-3.153 3.898v0c-0.228 0.294-0.403 0.427-0.526 0.398z" fill="#ffffff" data-fill-palette-color="accent"></path><path d="M167.596 34.995v0c-1.038-0.639-1.657-1.38-1.858-2.223-0.198-0.833-0.043-1.664 0.467-2.492v0c0.31-0.504 0.679-0.955 1.107-1.354 0.427-0.399 0.836-0.734 1.227-1.006v0c-0.3 0.071-0.582 0.126-0.845 0.163-0.266 0.043-0.477 0.07-0.633 0.081v0c-0.156 0.012-0.273-0.007-0.351-0.054v0c-0.108-0.066-0.121-0.166-0.04-0.298v0c0.114-0.186 0.381-0.316 0.798-0.39v0c1.406-0.201 2.561-0.438 3.464-0.709 0.903-0.271 1.801-0.48 2.692-0.625v0c1.514-0.242 2.977-0.26 4.388-0.053 1.417 0.211 2.683 0.659 3.799 1.346v0c1.176 0.724 1.925 1.569 2.247 2.537 0.319 0.974 0.142 2.006-0.53 3.098v0c-0.377 0.612-0.99 1.206-1.841 1.782-0.851 0.576-1.926 1.052-3.224 1.428v0c-0.532 0.152-1.102 0.273-1.711 0.361-0.605 0.083-1.101 0.116-1.489 0.1v0c1.383 0.669 2.889 0.964 4.519 0.884 1.629-0.081 3.135-0.229 4.517-0.445v0c0.184-0.003 0.302 0.013 0.356 0.045v0c0.132 0.081 0.155 0.191 0.071 0.329v0c-0.063 0.102-0.203 0.181-0.42 0.238v0c-1.818 0.386-3.615 0.545-5.392 0.477-1.771-0.065-3.451-0.602-5.038-1.612v0c-1.24-0.068-2.397-0.231-3.472-0.487-1.075-0.256-2.011-0.63-2.808-1.121zM170.082 34.987v0c0.372 0.229 0.813 0.406 1.324 0.529 0.507 0.13 1.038 0.221 1.593 0.274v0c-0.162-0.1-0.265-0.275-0.309-0.525-0.044-0.251 0.015-0.508 0.177-0.772v0c0.329-0.534 0.863-0.958 1.602-1.272 0.745-0.31 1.536-0.486 2.371-0.526 0.829-0.044 1.523 0.106 2.081 0.45v0c0.324 0.199 0.57 0.471 0.739 0.815 0.175 0.347 0.184 0.676 0.026 0.984v0c0.766-0.223 1.417-0.575 1.953-1.056 0.536-0.481 0.959-0.973 1.269-1.477v0c0.428-0.696 0.531-1.36 0.309-1.993-0.22-0.623-0.702-1.164-1.446-1.622v0c-0.72-0.443-1.667-0.679-2.84-0.707-1.18-0.032-2.393 0.119-3.64 0.452-1.257 0.335-2.417 0.816-3.481 1.442-1.068 0.633-1.864 1.375-2.389 2.227v0c-0.705 1.146-0.485 2.071 0.661 2.777z" fill="#ffffff" data-fill-palette-color="accent"></path><path d="M188.585 50.283v0c-0.69-0.724-1.006-1.484-0.946-2.28 0.064-0.791 0.48-1.553 1.25-2.287v0c0.724-0.69 1.755-1.308 3.093-1.854v0l0.234-0.091-1.157-0.065c-0.174 0.001-0.317-0.057-0.429-0.175v0c-0.107-0.112-0.115-0.212-0.023-0.299v0c0.112-0.107 0.323-0.157 0.631-0.15v0c1.084 0.096 2.213 0.177 3.387 0.245 1.169 0.073 2.218 0.075 3.146 0.008v0c-0.217-0.095-0.41-0.232-0.58-0.41v0c-0.175-0.184-0.26-0.36-0.257-0.529v0c-0.038-0.275 0.088-0.551 0.379-0.828v0c0.25-0.238 0.627-0.369 1.13-0.391 0.499-0.018 1.205 0.248 2.118 0.798v0c0.197 0.114 0.388 0.248 0.574 0.402 0.186 0.144 0.364 0.285 0.535 0.424v0c1.71-0.248 3.261-0.515 4.652-0.801 1.387-0.291 2.379-0.419 2.976-0.385v0c0.289-0.013 0.658 0.103 1.105 0.348 0.448 0.245 0.892 0.532 1.332 0.861 0.45 0.33 0.785 0.609 1.004 0.839v0c0.71 0.744 0.996 1.182 0.858 1.313v0c-0.092 0.087-0.466 0.123-1.123 0.108v0c-1.085-0.046-2.392-0.065-3.922-0.056-1.525 0.003-3.127 0.052-4.809 0.146v0c0.53 0.74 0.935 1.507 1.215 2.301 0.28 0.794 0.348 1.498 0.204 2.112v0c-0.025 0.199-0.119 0.376-0.282 0.532v0c-0.178 0.17-0.324 0.197-0.435 0.079v0c-0.083-0.087-0.124-0.242-0.123-0.466v0c0.022-0.926-0.494-1.942-1.549-3.049v0c-0.219-0.229-0.452-0.454-0.701-0.674-0.244-0.215-0.508-0.426-0.792-0.632v0c-1.733 0.183-3.398 0.432-4.995 0.748-1.607 0.315-2.967 0.746-4.081 1.292v0c-0.539 0.251-0.979 0.54-1.321 0.865v0c-0.336 0.321-0.539 0.665-0.608 1.032-0.059 0.367 0.063 0.709 0.364 1.025v0c0.194 0.204 0.486 0.398 0.876 0.581v0c0.571 0.283 1.315 0.527 2.231 0.734 0.912 0.211 1.879 0.379 2.903 0.503 1.028 0.119 2.01 0.22 2.944 0.302 0.94 0.077 1.73 0.136 2.373 0.176 0.637 0.035 1 0.054 1.089 0.056v0c0.139 0.003 0.229 0.025 0.268 0.066v0c0.087 0.092 0.062 0.203-0.075 0.334v0c-0.158 0.151-0.369 0.225-0.634 0.224v0c-0.443-0.016-1.113-0.039-2.008-0.07-0.896-0.031-1.909-0.083-3.038-0.155-1.119-0.072-2.252-0.208-3.398-0.41-1.151-0.207-2.218-0.499-3.2-0.876-0.987-0.382-1.782-0.889-2.385-1.521z" fill="#ffffff" data-fill-palette-color="accent"></path><path d="M203.379 67.466v0c-0.704-1.187-1.004-2.348-0.899-3.483 0.111-1.139 0.717-2.035 1.819-2.689v0c1.181-0.701 2.453-1.07 3.814-1.109 1.358-0.044 2.697 0.177 4.018 0.663 1.33 0.488 2.541 1.162 3.632 2.022 1.091 0.859 1.964 1.84 2.618 2.943v0c0.654 1.102 0.944 2.04 0.871 2.813-0.068 0.769-0.383 1.321-0.947 1.655v0c-0.539 0.32-1.259 0.411-2.159 0.274-0.9-0.137-1.858-0.544-2.873-1.219v0c-0.621-0.426-1.26-0.964-1.917-1.615-0.653-0.645-1.148-1.252-1.486-1.821v0c-0.255-0.43-0.316-0.685-0.183-0.764v0c0.103-0.061 0.266 0.096 0.489 0.472v0c0.208 0.351 0.635 0.835 1.279 1.452 0.638 0.62 1.342 1.178 2.11 1.672v0c0.894 0.526 1.651 0.822 2.272 0.888 0.621 0.066 1.107-0.005 1.458-0.214v0c0.321-0.19 0.515-0.478 0.582-0.861 0.061-0.38-0.045-0.801-0.318-1.261v0c-0.255-0.43-0.664-0.843-1.226-1.238v0c-0.811-0.567-1.858-1.027-3.141-1.38-1.279-0.347-2.548-0.511-3.806-0.494-1.259 0.018-2.321 0.284-3.188 0.798v0c-0.588 0.349-0.984 0.813-1.188 1.393-0.208 0.574-0.113 1.197 0.286 1.87v0c0.417 0.703 1.121 1.378 2.112 2.027 0.985 0.652 2.086 1.252 3.304 1.799 1.217 0.547 2.403 1.027 3.557 1.44 1.15 0.407 2.097 0.718 2.838 0.933v0c0.257 0.06 0.411 0.133 0.461 0.217v0c0.047 0.079 0.003 0.158-0.13 0.237v0c-0.188 0.111-0.4 0.127-0.636 0.046v0c-1.543-0.461-3.182-0.987-4.917-1.579-1.732-0.586-3.356-1.35-4.874-2.292-1.52-0.933-2.73-2.131-3.632-3.595z" fill="#ffffff" data-fill-palette-color="accent"></path><path d="M214.126 88.571v0c-0.354-1.203-0.312-2.129 0.128-2.78 0.446-0.653 1.058-1.094 1.835-1.323v0c0.75-0.221 1.589-0.314 2.517-0.279 0.921 0.037 1.81 0.124 2.666 0.261v0c-0.532-0.262-1.025-0.524-1.477-0.788-0.45-0.257-0.815-0.472-1.094-0.647v0c-0.13-0.094-0.214-0.201-0.249-0.323v0c-0.044-0.149 0.012-0.246 0.167-0.291v0c0.149-0.044 0.311 0.008 0.486 0.154v0c0.726 0.469 1.675 0.986 2.847 1.551 1.179 0.563 2.355 1.065 3.528 1.504v0c0.954 0.372 2.143 0.804 3.565 1.296 1.418 0.5 2.906 0.99 4.465 1.471 1.561 0.487 2.974 0.886 4.24 1.195v0c0.21 0.041 0.466 0.072 0.766 0.094 0.302 0.028 0.558 0.012 0.767-0.05v0c0.297-0.088 0.41-0.253 0.339-0.496v0c-0.018-0.061-0.13-0.215-0.335-0.463-0.198-0.25-0.398-0.492-0.6-0.727-0.201-0.234-0.311-0.382-0.328-0.443v0c-0.07-0.236 0.07-0.259 0.42-0.068v0c0.499 0.374 1.029 0.875 1.588 1.503 0.562 0.635 1.08 1.308 1.554 2.02 0.465 0.707 0.778 1.331 0.937 1.872v0c0.372 1.263 0.157 2.014-0.647 2.251v0c-0.426 0.125-1.041 0.094-1.846-0.095v0c-0.638-0.172-1.415-0.464-2.329-0.878-0.922-0.411-1.908-0.881-2.959-1.408-1.049-0.521-2.078-1.021-3.087-1.502-1.01-0.488-1.887-0.883-2.629-1.186v0c-0.184-0.078-0.66-0.257-1.425-0.538-0.766-0.281-1.677-0.582-2.733-0.902-1.058-0.327-2.163-0.637-3.314-0.929-1.146-0.301-2.216-0.507-3.211-0.617-0.997-0.117-1.796-0.088-2.397 0.089v0c-0.811 0.239-1.101 0.75-0.87 1.534v0c0.149 0.507 0.491 1.104 1.024 1.791v0c0.491 0.67 1.136 1.339 1.935 2.007 0.797 0.661 1.626 1.294 2.487 1.9 0.863 0.612 1.673 1.141 2.429 1.586 0.749 0.448 1.32 0.779 1.713 0.993v0c0.227 0.124 0.359 0.247 0.395 0.368v0c0.036 0.122-0.021 0.204-0.169 0.248v0c-0.149 0.044-0.319 0.013-0.512-0.091v0c-0.657-0.335-1.512-0.795-2.566-1.381-1.054-0.585-2.141-1.26-3.262-2.023-1.119-0.757-2.115-1.594-2.987-2.512-0.873-0.918-1.463-1.9-1.772-2.948z" fill="#ffffff" data-fill-palette-color="accent"></path><path d="M13.652 173.394v0c-0.432-1.072-0.487-1.907-0.167-2.506 0.32-0.6 0.84-1.044 1.558-1.334v0c0.699-0.282 1.506-0.455 2.422-0.52 0.912-0.056 1.806-0.051 2.682 0.013 0.876 0.065 1.595 0.124 2.157 0.18v0c-3.805-1.057-6.547-2.341-8.226-3.852v0c-0.518-0.475-0.887-0.987-1.108-1.536v0c-0.353-0.876-0.311-1.686 0.126-2.431 0.436-0.745 1.079-1.289 1.928-1.631v0c0.111-0.045 0.222-0.089 0.333-0.134 0.105-0.042 0.206-0.072 0.306-0.089v0c1.069-0.248 2.287-0.374 3.653-0.377 1.372-0.006 2.781 0.042 4.226 0.143 1.452 0.099 2.867 0.208 4.244 0.329 1.381 0.112 2.634 0.158 3.758 0.138 1.123-0.02 2.012-0.161 2.665-0.424v0c0.764-0.308 1.209-0.749 1.335-1.323 0.128-0.568 0.048-1.211-0.242-1.93v0c-0.282-0.699-0.716-1.428-1.302-2.187-0.584-0.752-1.228-1.484-1.932-2.194-0.701-0.705-1.39-1.32-2.064-1.846-0.671-0.535-1.239-0.936-1.704-1.204v0c-0.191-0.098-0.322-0.235-0.393-0.411v0c-0.087-0.216-0.025-0.457 0.186-0.725 0.214-0.261 0.497-0.462 0.85-0.604v0c0.281-0.113 0.58-0.173 0.897-0.179 0.319 0.001 0.608 0.078 0.867 0.232v0c0.557 0.307 1.198 0.873 1.925 1.696 0.727 0.824 1.437 1.787 2.132 2.889 0.704 1.106 1.283 2.224 1.738 3.355v0c0.416 1.032 0.69 2.015 0.823 2.949 0.133 0.934 0.061 1.764-0.216 2.49-0.28 0.72-0.834 1.247-1.664 1.581v0c-0.261 0.105-0.559 0.187-0.892 0.245v0c-0.667 0.117-1.559 0.146-2.676 0.087-1.111-0.061-2.346-0.168-3.705-0.319-1.359-0.151-2.738-0.313-4.137-0.486-1.405-0.171-2.736-0.307-3.991-0.409-1.262-0.099-2.348-0.117-3.257-0.055v0c-0.723 0.033-1.369 0.164-1.938 0.393v0c-0.529 0.213-0.914 0.501-1.155 0.864-0.248 0.366-0.274 0.79-0.079 1.274v0c0.203 0.503 0.658 1.041 1.367 1.613v0c0.992 0.823 2.244 1.537 3.756 2.143 1.521 0.61 3.167 1.143 4.938 1.6 1.771 0.456 3.552 0.863 5.344 1.219 1.791 0.357 3.491 0.682 5.097 0.977 1.604 0.288 2.978 0.559 4.12 0.812v0c0.589 0.142 1.049 0.371 1.381 0.686 0.322 0.311 0.542 0.61 0.657 0.897v0c0.105 0.261 0.133 0.471 0.082 0.627-0.051 0.157-0.168 0.197-0.351 0.119v0c-0.52-0.216-1.36-0.474-2.521-0.773-1.158-0.293-2.509-0.592-4.051-0.897-1.543-0.305-3.172-0.571-4.889-0.799-1.714-0.221-3.388-0.39-5.022-0.506-1.634-0.116-3.13-0.137-4.489-0.06-1.352 0.074-2.43 0.273-3.234 0.596v0c-0.483 0.195-0.86 0.449-1.128 0.762-0.269 0.313-0.348 0.664-0.237 1.052v0l0.051 0.241 0.04 0.098c0.105 0.261 0.295 0.451 0.57 0.568v0c0.064 0.027 0.109 0.074 0.136 0.139v0c0.018 0.046 0.001 0.079-0.051 0.1-0.059 0.024-0.143-0.007-0.253-0.091v0c-0.191-0.098-0.424-0.27-0.698-0.517-0.28-0.244-0.473-0.497-0.578-0.758z" fill="#ffffff" data-fill-palette-color="accent"></path><path d="M33.562 199.781v0c-0.551-0.545-1.094-1.215-1.627-2.009-0.529-0.789-0.963-1.637-1.304-2.544-0.34-0.917-0.512-1.825-0.514-2.722-0.007-0.902 0.236-1.744 0.729-2.526v0c0.03 1.132 0.418 2.347 1.165 3.646 0.757 1.299 1.652 2.498 2.684 3.596v0c1.37 1.458 2.726 2.576 4.067 3.355v0c0.377 0.226 0.856 0.453 1.436 0.68 0.586 0.222 1.198 0.406 1.837 0.55 0.638 0.144 1.245 0.198 1.819 0.161 0.579-0.042 1.038-0.222 1.377-0.54v0c0.241-0.227 0.402-0.523 0.483-0.89 0.076-0.361 0.065-0.82-0.032-1.376v0c-0.075-0.316-0.221-0.739-0.439-1.269-0.218-0.52-0.439-1.095-0.664-1.725-0.22-0.635-0.382-1.275-0.486-1.921-0.105-0.646-0.083-1.256 0.064-1.829 0.152-0.578 0.494-1.069 1.025-1.471v0c0.785-0.574 1.787-0.906 3.005-0.998 1.219-0.102 2.534-0.014 3.946 0.264 1.402 0.278 2.801 0.692 4.2 1.244 1.388 0.551 2.662 1.176 3.821 1.875 1.159 0.709 2.086 1.432 2.78 2.171v0c0.709 0.754 1.173 1.536 1.393 2.345 0.219 0.819-0.064 1.515-0.85 2.089v0c-0.342 0.254-0.909 0.39-1.702 0.411-0.793 0.02-1.697 0.005-2.712-0.047-1.015-0.051-2.053-0.071-3.115-0.059-1.057 0.007-2.034 0.119-2.932 0.336-0.894 0.212-1.598 0.593-2.114 1.145v0c-0.04-0.485 0.019-0.921 0.175-1.31 0.151-0.384 0.373-0.713 0.666-0.988v0c0.411-0.386 0.911-0.697 1.502-0.933 0.59-0.226 1.201-0.394 1.831-0.504 0.626-0.105 1.181-0.173 1.666-0.203v0c0.854-0.058 1.73-0.041 2.629 0.052 0.894 0.097 1.762 0.234 2.604 0.409v0c0.081-0.366-0.057-0.739-0.414-1.119v0c-0.371-0.395-0.874-0.755-1.506-1.078-0.628-0.328-1.237-0.611-1.828-0.849-0.596-0.233-1.027-0.388-1.293-0.466v0c-1.085-0.362-2.229-0.684-3.431-0.965-1.197-0.276-2.347-0.486-3.449-0.63-1.102-0.144-2.057-0.203-2.864-0.179-0.798 0.025-1.36 0.157-1.687 0.396v0c-0.388 0.307-0.546 0.75-0.475 1.331 0.077 0.575 0.271 1.234 0.582 1.976 0.311 0.742 0.576 1.508 0.796 2.297v0c0.321 1.061 0.402 1.971 0.244 2.729-0.158 0.767-0.486 1.385-0.984 1.853v0c-0.616 0.579-1.438 0.912-2.467 1-1.03 0.098-2.113-0.063-3.252-0.482v0c-1-0.385-1.954-0.87-2.862-1.457-0.904-0.581-1.666-1.14-2.288-1.677-0.611-0.537-1.023-0.919-1.235-1.145z" fill="#ffffff" data-fill-palette-color="accent"></path><path d="M63.164 225.919v0c-1.24-0.669-2.18-1.314-2.823-1.933-0.646-0.613-1.101-1.171-1.365-1.674-0.261-0.509-0.463-0.906-0.606-1.191v0c-0.124-0.363-0.169-0.576-0.135-0.638v0c0.013-0.025 0.042-0.025 0.085-0.002v0c0.081 0.044 0.168 0.111 0.263 0.202 0.098 0.101 0.167 0.186 0.209 0.257v0c0.591 0.64 1.147 1.108 1.667 1.405 0.52 0.297 1.062 0.598 1.626 0.902v0c0.682 0.368 1.543 0.753 2.583 1.155 1.04 0.402 2.175 0.746 3.404 1.034 1.223 0.284 2.431 0.412 3.623 0.384v0c1.589-0.022 2.96-0.323 4.113-0.901 1.162-0.581 1.973-1.296 2.431-2.145v0c0.492-0.911 0.506-1.908 0.043-2.991-0.461-1.073-1.562-2.08-3.304-3.021v0c-0.167-0.09-0.344-0.186-0.53-0.287-0.186-0.1-0.386-0.197-0.601-0.288v0c-0.864-0.387-1.831-0.716-2.899-0.99-1.073-0.267-2.084-0.425-3.035-0.474-0.954-0.043-1.711 0.077-2.271 0.359v0c-0.919 0.472-1.7 0.903-2.342 1.292-0.636 0.393-1.212 0.77-1.729 1.132-0.516 0.362-1.082 0.736-1.699 1.124v0c-0.256 0.238-0.509 0.29-0.757 0.156v0c-0.124-0.067-0.142-0.181-0.055-0.343v0c0.057-0.105 0.111-0.184 0.163-0.236v0c0.382-0.41 1.034-0.914 1.958-1.512 0.923-0.598 2.015-1.241 3.275-1.929 1.251-0.685 2.54-1.354 3.869-2.006 1.325-0.645 2.573-1.228 3.743-1.749 1.164-0.524 2.133-0.933 2.908-1.227 0.772-0.288 1.22-0.398 1.343-0.331v0c0.124 0.067 0.193 0.184 0.207 0.352 0.02 0.171-0.011 0.302-0.093 0.394v0c0 0-0.222 0.092-0.666 0.277-0.453 0.187-1.02 0.429-1.701 0.726-0.684 0.303-1.4 0.613-2.147 0.93-0.747 0.317-1.418 0.603-2.013 0.858-0.594 0.255-1.029 0.445-1.303 0.569v0c2.011 0.678 4.064 1.302 6.157 1.872 2.087 0.567 4.205 0.87 6.353 0.91v0c1.326 0.02 2.454-0.127 3.385-0.442 0.93-0.314 1.536-0.732 1.817-1.252v0c0.291-0.539 0.193-1.173-0.295-1.9-0.484-0.734-1.495-1.516-3.032-2.346v0c-0.62-0.335-1.424-0.677-2.411-1.026-0.991-0.343-2.078-0.674-3.259-0.992-1.181-0.318-2.378-0.584-3.592-0.799-1.207-0.211-2.335-0.345-3.386-0.4-1.057-0.059-1.944-0.017-2.661 0.124v0c-0.501 0.082-0.744 0.259-0.73 0.53v0c0.01 0.085-0.002 0.159-0.035 0.221v0c-0.023 0.043-0.063 0.042-0.119-0.003-0.059-0.04-0.107-0.098-0.145-0.175v0c-0.224-0.385-0.33-0.79-0.317-1.215 0.016-0.415 0.098-0.76 0.246-1.033v0c0.057-0.105 0.123-0.19 0.197-0.254 0.074-0.064 0.138-0.122 0.19-0.173v0c0.711-0.368 1.635-0.566 2.77-0.594 1.135-0.027 2.368 0.054 3.698 0.245 1.327 0.196 2.65 0.459 3.97 0.787 1.329 0.326 2.531 0.679 3.607 1.059 1.081 0.384 1.932 0.743 2.551 1.078v0c2.175 1.175 3.69 2.373 4.543 3.594 0.85 1.228 1.029 2.297 0.537 3.208v0c-0.402 0.744-1.241 1.335-2.518 1.774-1.28 0.429-2.999 0.61-5.156 0.542v0c-1.065-0.015-2.158-0.125-3.28-0.331-1.119-0.196-2.216-0.44-3.291-0.732v0c0.411 0.174 0.805 0.347 1.185 0.519 0.369 0.176 0.722 0.354 1.056 0.535v0c2.299 1.242 3.762 2.52 4.389 3.835 0.627 1.315 0.644 2.521 0.051 3.618v0c-0.425 0.787-1.123 1.487-2.094 2.099-0.974 0.618-2.135 1.092-3.482 1.422-1.34 0.333-2.81 0.468-4.409 0.404v0c-1.127-0.048-2.203-0.213-3.227-0.494-1.021-0.287-1.937-0.602-2.746-0.942-0.802-0.337-1.455-0.642-1.956-0.913z" fill="#ffffff" data-fill-palette-color="accent"></path><path d="M146.578 237.67v0c-0.111 0.019-0.189-0.099-0.234-0.356v0c-0.04-0.229-0.027-0.564 0.04-1.004v0c0.112-0.713 0.364-1.69 0.756-2.931 0.399-1.242 0.876-2.63 1.432-4.163 0.557-1.527 1.164-3.112 1.822-4.756 0.658-1.644 1.314-3.235 1.969-4.772 0.655-1.537 1.264-2.929 1.826-4.178 0.556-1.241 1.028-2.231 1.413-2.97 0.386-0.739 0.638-1.119 0.757-1.139v0l0.312-0.054c0.208-0.036 0.325 0.019 0.35 0.164v0c0.024 0.139-0.064 0.39-0.265 0.754v0c-0.75 1.446-1.531 3.058-2.344 4.836-0.82 1.78-1.621 3.61-2.402 5.49-0.787 1.888-1.523 3.739-2.209 5.553-0.686 1.814-1.288 3.509-1.807 5.087-0.514 1.569-0.904 2.902-1.171 4v0c-0.066 0.276-0.148 0.423-0.245 0.439zM132.622 244.429v0c-0.111 0.019-0.188-0.096-0.232-0.345v0c-0.041-0.236-0.028-0.574 0.038-1.015v0c0.112-0.713 0.375-1.71 0.789-2.99 0.407-1.279 0.914-2.718 1.522-4.318 0.608-1.6 1.241-3.244 1.899-4.931v0c-0.495 0.157-0.986 0.314-1.473 0.471-0.488 0.156-0.956 0.32-1.405 0.491v0c-2.902 1.034-4.963 2.128-6.185 3.284-1.222 1.156-1.766 2.116-1.634 2.88v0c0.081 0.465 0.37 0.833 0.868 1.103v0c0.057 0.04 0.087 0.071 0.091 0.092v0c0.005 0.028-0.038 0.049-0.128 0.065v0c-0.139 0.024-0.249 0.008-0.331-0.05v0c-1.128-0.569-1.786-1.387-1.971-2.456v0c-0.133-0.763 0.029-1.581 0.485-2.454 0.457-0.866 1.265-1.728 2.424-2.588 1.152-0.858 2.694-1.634 4.625-2.327v0c0.946-0.358 1.914-0.669 2.904-0.934 0.996-0.273 1.996-0.483 3.001-0.629v0c0.59-1.418 1.168-2.762 1.733-4.033 0.565-1.271 1.079-2.408 1.541-3.41 0.463-0.996 0.851-1.785 1.164-2.369 0.32-0.585 0.525-0.885 0.616-0.901v0l0.312-0.054c0.208-0.036 0.324 0.015 0.349 0.154v0c0.025 0.146-0.063 0.401-0.264 0.764v0c-0.675 1.34-1.403 2.85-2.183 4.53-0.788 1.674-1.564 3.403-2.326 5.187v0c1.102-0.12 2.205-0.169 3.31-0.146v0c0.432 0.018 0.94 0.062 1.524 0.131 0.59 0.062 1.177 0.167 1.76 0.316 0.59 0.148 1.116 0.374 1.577 0.681 0.453 0.3 0.758 0.701 0.917 1.202v0c0.056 0.155 0.051 0.234-0.013 0.238-0.058-0.004-0.119-0.047-0.183-0.129v0c-0.138-0.262-0.482-0.431-1.032-0.507-0.548-0.069-1.114-0.096-1.697-0.08-0.584 0.016-1.016 0.037-1.297 0.065v0c-0.734 0.056-1.496 0.153-2.288 0.29v0c-1.277 0.222-2.552 0.515-3.825 0.88v0c-0.725 1.749-1.407 3.462-2.045 5.138-0.645 1.678-1.194 3.228-1.647 4.652-0.461 1.417-0.809 2.625-1.043 3.623v0c-0.068 0.269-0.15 0.412-0.247 0.429z" fill="#ffffff" data-fill-palette-color="accent"></path><path d="M173.402 229.221v0c-0.805 0.437-1.517 0.564-2.138 0.379-0.621-0.184-1.106-0.598-1.456-1.241v0c-0.212-0.39-0.371-0.801-0.476-1.232-0.096-0.429-0.162-0.822-0.196-1.18v0c-0.062 0.226-0.13 0.431-0.206 0.617-0.072 0.192-0.132 0.34-0.179 0.446v0c-0.047 0.106-0.101 0.175-0.163 0.208v0c-0.087 0.047-0.159 0.018-0.216-0.087v0c-0.081-0.149-0.066-0.373 0.043-0.673v0c0.398-0.994 0.675-1.834 0.832-2.519 0.163-0.689 0.365-1.357 0.608-2.002v0c0.408-1.079 0.944-2.04 1.61-2.882 0.665-0.842 1.434-1.5 2.306-1.973v0c0.91-0.494 1.742-0.666 2.498-0.515 0.749 0.154 1.356 0.659 1.819 1.512v0c0.255 0.47 0.414 1.094 0.475 1.871 0.058 0.77-0.034 1.65-0.275 2.638v0c-0.1 0.407-0.235 0.821-0.407 1.243-0.168 0.428-0.333 0.766-0.495 1.014v0c0.958-0.656 1.715-1.528 2.27-2.616 0.559-1.097 1.028-2.137 1.408-3.12v0c0.072-0.119 0.126-0.189 0.163-0.209v0c0.105-0.057 0.186-0.033 0.243 0.072v0c0.044 0.08 0.042 0.202-0.006 0.364v0c-0.431 1.332-0.999 2.566-1.705 3.703-0.715 1.134-1.696 2.027-2.944 2.681v0c-0.509 0.789-1.05 1.484-1.622 2.083-0.569 0.606-1.166 1.078-1.791 1.418zM174.33 227.586v0c0.291-0.158 0.574-0.376 0.848-0.652 0.277-0.287 0.534-0.603 0.771-0.948v0c-0.124 0.067-0.275 0.069-0.453 0.006-0.185-0.06-0.333-0.192-0.444-0.397v0c-0.225-0.415-0.298-0.924-0.217-1.529 0.071-0.608 0.248-1.189 0.532-1.743 0.29-0.558 0.652-0.955 1.085-1.191v0c0.248-0.134 0.517-0.192 0.807-0.174 0.291 0.019 0.509 0.132 0.654 0.342v0c0.141-0.582 0.152-1.137 0.034-1.665-0.109-0.526-0.271-0.987-0.487-1.383v0c-0.292-0.539-0.685-0.855-1.176-0.948-0.492-0.094-1.028 0.018-1.61 0.333v0c-0.557 0.303-1.067 0.832-1.53 1.589-0.46 0.763-0.815 1.613-1.067 2.551-0.249 0.945-0.368 1.883-0.359 2.815 0.01 0.933 0.194 1.73 0.554 2.393v0c0.481 0.885 1.167 1.086 2.058 0.601z" fill="#ffffff" data-fill-palette-color="accent"></path><path d="M200.723 211.088v0c-0.54 0.526-1.11 0.768-1.712 0.725-0.597-0.037-1.176-0.343-1.737-0.918v0c-0.526-0.54-1-1.312-1.421-2.319v0l-0.065-0.172-0.048 0.873c0.003 0.135-0.038 0.244-0.124 0.327v0c-0.081 0.079-0.155 0.083-0.224 0.013v0c-0.079-0.081-0.119-0.238-0.121-0.473v0c0.06-0.816 0.113-1.665 0.159-2.545 0.046-0.881 0.038-1.671-0.023-2.369v0c-0.067 0.164-0.168 0.312-0.304 0.444v0c-0.136 0.133-0.269 0.198-0.399 0.197v0c-0.2 0.027-0.408-0.07-0.624-0.292v0c-0.177-0.182-0.276-0.459-0.296-0.833-0.025-0.379 0.166-0.914 0.573-1.606v0c0.092-0.148 0.19-0.294 0.297-0.437 0.111-0.138 0.218-0.271 0.319-0.4v0c-0.203-1.288-0.42-2.453-0.652-3.497-0.221-1.044-0.324-1.79-0.308-2.238v0c-0.007-0.219 0.076-0.497 0.25-0.834 0.179-0.341 0.392-0.682 0.64-1.023 0.243-0.336 0.451-0.587 0.622-0.754v0c0.555-0.541 0.881-0.761 0.979-0.66v0c0.069 0.071 0.1 0.355 0.094 0.853v0c-0.03 0.817-0.035 1.8-0.014 2.951 0.021 1.151 0.073 2.359 0.157 3.625v0c0.553-0.412 1.127-0.726 1.722-0.942 0.595-0.217 1.124-0.275 1.586-0.175v0c0.149 0.022 0.283 0.093 0.401 0.215v0c0.128 0.131 0.149 0.238 0.063 0.322v0c-0.066 0.064-0.181 0.097-0.344 0.1v0c-0.702-0.014-1.467 0.383-2.294 1.189v0c-0.166 0.162-0.328 0.34-0.485 0.532-0.162 0.187-0.319 0.39-0.471 0.607v0c0.148 1.302 0.349 2.552 0.604 3.751 0.249 1.204 0.585 2.224 1.008 3.061v0c0.194 0.401 0.417 0.73 0.667 0.987v0c0.246 0.252 0.503 0.4 0.772 0.443 0.278 0.043 0.534-0.048 0.765-0.275v0c0.151-0.148 0.296-0.372 0.434-0.674v0c0.205-0.426 0.383-0.984 0.537-1.675 0.153-0.69 0.272-1.421 0.356-2.192 0.079-0.776 0.143-1.517 0.192-2.224 0.059-0.707 0.098-1.301 0.119-1.784 0.021-0.483 0.032-0.759 0.033-0.829v0c0.001-0.1 0.017-0.164 0.047-0.194v0c0.071-0.069 0.155-0.053 0.254 0.048v0c0.118 0.121 0.176 0.281 0.173 0.481v0c-0.009 0.334-0.02 0.837-0.034 1.508-0.018 0.677-0.048 1.439-0.088 2.286-0.045 0.851-0.141 1.707-0.286 2.566-0.145 0.87-0.357 1.677-0.635 2.42-0.273 0.749-0.644 1.352-1.114 1.81z" fill="#ffffff" data-fill-palette-color="accent"></path><path d="M219.798 188.184v0c-0.537 0.885-1.199 1.493-1.985 1.823-0.795 0.333-1.606 0.249-2.431-0.252v0c-0.891-0.541-1.591-1.255-2.099-2.141-0.509-0.886-0.835-1.854-0.979-2.906-0.144-1.052-0.125-2.095 0.058-3.129 0.189-1.031 0.534-1.958 1.035-2.783v0c0.501-0.825 1.018-1.351 1.553-1.579 0.54-0.224 1.021-0.208 1.442 0.048v0c0.403 0.245 0.717 0.691 0.942 1.338 0.225 0.647 0.295 1.428 0.21 2.341v0c-0.062 0.564-0.194 1.18-0.394 1.849-0.197 0.663-0.423 1.206-0.679 1.628v0c-0.197 0.325-0.347 0.457-0.45 0.394v0c-0.078-0.048-0.031-0.213 0.141-0.496v0c0.161-0.265 0.334-0.72 0.52-1.365 0.176-0.643 0.294-1.305 0.353-1.986v0c0.03-0.781-0.042-1.389-0.215-1.824-0.175-0.444-0.392-0.745-0.651-0.902v0c-0.241-0.146-0.501-0.172-0.781-0.079-0.28 0.094-0.524 0.312-0.732 0.656v0c-0.194 0.319-0.323 0.735-0.387 1.248v0c-0.09 0.745-0.023 1.605 0.2 2.582 0.217 0.972 0.555 1.874 1.015 2.705 0.459 0.831 1.011 1.442 1.655 1.833v0c0.446 0.271 0.896 0.371 1.35 0.301 0.455-0.07 0.834-0.355 1.137-0.854v0c0.318-0.524 0.52-1.229 0.606-2.117 0.086-0.887 0.096-1.833 0.03-2.838-0.066-1.004-0.169-1.961-0.309-2.87-0.134-0.905-0.261-1.646-0.381-2.221v0c-0.047-0.194-0.053-0.32-0.016-0.381v0c0.037-0.06 0.106-0.059 0.208 0.003v0c0.138 0.084 0.222 0.217 0.251 0.4v0c0.24 1.192 0.47 2.469 0.69 3.831 0.22 1.361 0.286 2.712 0.198 4.05-0.082 1.343-0.45 2.574-1.105 3.693z" fill="#ffffff" data-fill-palette-color="accent"></path><path d="M232.846 160.275v0c-0.258 0.908-0.659 1.482-1.203 1.723-0.549 0.232-1.118 0.265-1.708 0.097v0c-0.562-0.16-1.131-0.438-1.706-0.836-0.571-0.389-1.101-0.803-1.592-1.242v0c0.234 0.389 0.441 0.755 0.622 1.099 0.187 0.346 0.333 0.633 0.437 0.86v0c0.043 0.107 0.051 0.208 0.023 0.303v0c-0.031 0.108-0.104 0.146-0.219 0.114v0c-0.108-0.031-0.191-0.127-0.247-0.29v0c-0.272-0.59-0.671-1.3-1.196-2.13-0.517-0.835-1.061-1.627-1.633-2.375v0c-0.461-0.621-1.044-1.376-1.751-2.265-0.702-0.88-1.451-1.788-2.246-2.725-0.803-0.938-1.542-1.763-2.219-2.475v0c-0.116-0.106-0.265-0.225-0.448-0.357-0.18-0.139-0.352-0.232-0.514-0.278v0c-0.224-0.063-0.361-0.004-0.413 0.179v0c-0.012 0.041-0.004 0.182 0.022 0.424 0.027 0.242 0.058 0.478 0.096 0.708 0.03 0.228 0.039 0.366 0.025 0.413v0c-0.052 0.183-0.15 0.141-0.293-0.127v0c-0.169-0.436-0.303-0.968-0.404-1.597-0.107-0.631-0.168-1.267-0.183-1.908-0.009-0.64 0.044-1.163 0.16-1.569v0c0.269-0.949 0.709-1.336 1.319-1.163v0c0.318 0.09 0.697 0.355 1.136 0.795v0c0.335 0.366 0.714 0.865 1.135 1.497 0.421 0.632 0.86 1.328 1.318 2.087 0.453 0.751 0.904 1.483 1.353 2.197 0.449 0.713 0.849 1.317 1.199 1.812v0c0.083 0.119 0.316 0.423 0.697 0.912 0.374 0.487 0.831 1.045 1.37 1.674 0.546 0.631 1.125 1.271 1.739 1.921 0.605 0.655 1.203 1.217 1.795 1.685 0.59 0.475 1.112 0.777 1.566 0.906v0c0.61 0.173 0.998-0.035 1.166-0.625v0c0.11-0.386 0.132-0.903 0.067-1.551v0c-0.042-0.627-0.184-1.312-0.428-2.055-0.236-0.741-0.509-1.481-0.819-2.22-0.305-0.731-0.605-1.391-0.899-1.98-0.303-0.584-0.533-1.023-0.691-1.316v0c-0.097-0.174-0.133-0.305-0.108-0.393v0c0.027-0.095 0.095-0.127 0.203-0.096v0c0.115 0.033 0.214 0.123 0.296 0.27v0c0.282 0.476 0.64 1.112 1.073 1.908 0.433 0.796 0.853 1.663 1.261 2.599 0.408 0.936 0.707 1.87 0.896 2.802 0.189 0.932 0.171 1.795-0.054 2.588z" fill="#ffffff" data-fill-palette-color="accent"></path><path d="M2.306 122.921c0-6.7 5.432-12.132 12.132-12.132 6.7 0 12.132 5.432 12.132 12.132 0 6.7-5.432 12.132-12.132 12.132-6.7 0-12.132-5.432-12.132-12.132z" fill="#ffffff" data-fill-palette-color="accent"></path><path d="M218.417 122.921c0-6.7 5.432-12.132 12.132-12.132 6.7 0 12.132 5.432 12.132 12.132 0 6.7-5.432 12.132-12.132 12.132-6.7 0-12.132-5.432-12.132-12.132z" fill="#ffffff" data-fill-palette-color="accent"></path></g><g id="text-1"></g></svg></g></svg></g></svg></g><defs></defs></svg><rect width="395.5199999999999" height="141.37094061012303" fill="none" stroke="none" visibility="hidden"></rect></g></svg></g></svg>