 <svg  version="1.0" xmlns="http://www.w3.org/2000/svg"  width="1350.000000pt" height="1350.000000pt" viewBox="0 0 1350.000000 1350.000000"  preserveAspectRatio="xMidYMid meet">  <g transform="translate(0.000000,1350.000000) scale(0.100000,-0.100000)" fill="#ebebf0" stroke="none"> <path d="M4110 9365 c-14 -8 -31 -14 -38 -15 -36 -1 -141 -98 -190 -175 -14 -24 -14 -23 -62 -155 -20 -56 -28 -140 -19 -204 4 -33 6 -63 3 -68 -3 -4 -24 -5 -46 -2 -56 9 -77 -18 -78 -97 0 -99 76 -227 113 -190 23 23 35 11 39 -46 6 -69 35 -136 83 -191 30 -35 110 -92 130 -92 9 0 30 -13 47 -30 35 -35 38 -36 38 -10 0 24 -37 82 -122 191 -37 47 -76 110 -88 140 -12 30 -30 63 -40 74 -64 70 -74 149 -27 218 16 24 29 63 36 110 24 153 33 193 49 217 31 47 42 65 58 100 16 37 113 110 169 127 35 11 165 5 180 -8 5 -5 19 -9 31 -9 12 0 27 -7 34 -15 7 -8 21 -15 32 -15 10 0 29 -11 42 -25 13 -14 27 -25 31 -25 3 0 30 -24 58 -53 29 -29 77 -75 109 -103 68 -60 68 -83 2 -138 -47 -40 -58 -67 -70 -175 -4 -36 -16 -87 -27 -115 -10 -28 -24 -73 -29 -101 -6 -27 -16 -57 -23 -65 -16 -19 -55 -100 -55 -114 0 -5 -9 -19 -19 -30 -18 -20 -28 -35 -76 -115 -11 -18 -29 -45 -40 -60 -33 -42 -47 -116 -39 -210 l7 -82 52 -55 c29 -30 59 -54 68 -54 9 0 18 -4 21 -9 3 -4 27 -14 53 -21 114 -32 283 -130 283 -164 0 -7 10 -21 21 -32 12 -10 30 -39 41 -64 11 -24 22 -47 26 -50 4 -3 16 -30 26 -60 10 -30 29 -71 41 -90 13 -19 26 -51 29 -71 4 -21 13 -43 22 -50 11 -9 15 -34 14 -108 -1 -95 8 -170 30 -225 6 -16 8 -37 5 -46 -3 -10 1 -37 9 -61 19 -60 26 -99 36 -204 5 -49 14 -129 20 -176 13 -102 5 -149 -31 -166 -60 -28 -209 -73 -262 -78 -9 -1 -25 -9 -35 -18 -18 -16 -163 -67 -191 -67 -9 0 -21 -4 -27 -9 -5 -5 -70 -14 -144 -20 -74 -6 -157 -15 -185 -21 -27 -6 -61 -12 -75 -14 -41 -5 -123 -34 -180 -66 -30 -16 -66 -35 -80 -41 -14 -6 -35 -16 -46 -21 -30 -14 -242 -5 -276 12 -16 7 -28 21 -28 30 0 10 27 45 60 79 l59 61 168 -2 c198 -2 229 2 281 37 21 14 63 29 91 34 36 6 57 15 67 30 10 13 26 21 45 21 24 0 45 14 94 61 86 83 101 132 86 289 -10 105 -37 183 -85 244 -52 67 -122 136 -139 136 -9 0 -19 4 -22 10 -7 11 -78 44 -120 54 -59 15 -137 57 -142 76 -3 11 -11 20 -17 20 -7 0 -30 18 -52 39 -63 62 -115 101 -137 101 -11 0 -28 6 -36 13 -23 19 -90 39 -136 40 -51 1 -227 -23 -240 -32 -11 -9 -112 -27 -227 -41 -43 -5 -85 -14 -95 -19 -10 -6 -48 -13 -85 -16 -49 -5 -78 -14 -113 -36 -25 -16 -51 -29 -57 -29 -6 0 -35 -25 -64 -56 -41 -44 -55 -68 -63 -106 -13 -60 -14 -160 -1 -213 5 -22 12 -107 16 -190 3 -82 8 -157 11 -165 3 -8 7 -28 8 -45 17 -209 26 -255 54 -297 34 -50 92 -112 127 -134 24 -16 70 -79 99 -134 20 -38 19 -85 -2 -105 -35 -36 -144 7 -185 73 -12 20 -37 53 -54 72 -17 19 -39 51 -50 70 -10 19 -29 47 -41 62 -11 15 -29 49 -39 75 -9 26 -21 53 -26 59 -4 6 -19 42 -33 80 -13 37 -31 72 -39 76 -8 4 -17 27 -21 51 -4 23 -13 62 -22 87 -22 67 -54 215 -64 300 -5 41 -14 89 -20 107 -5 17 -12 82 -14 145 -3 62 -9 131 -15 153 -5 22 -9 85 -9 140 1 91 3 104 28 145 15 25 47 59 72 77 24 18 51 38 59 45 8 7 28 18 42 23 15 6 76 55 134 109 124 116 109 107 399 247 22 10 47 19 56 19 8 0 24 7 35 15 22 17 102 55 116 55 5 0 21 9 36 20 24 18 53 22 227 31 110 6 213 15 228 21 16 6 50 32 77 58 65 65 86 77 150 85 30 3 63 9 73 11 25 8 21 24 -7 24 -13 0 -29 7 -36 15 -7 8 -21 15 -31 15 -20 0 -91 36 -139 70 -50 36 -60 23 -60 -74 0 -47 -4 -96 -9 -109 -9 -23 -13 -24 -53 -16 -24 4 -115 8 -203 9 l-159 0 -146 -71 c-80 -39 -201 -98 -270 -131 -69 -33 -166 -79 -215 -104 -50 -24 -98 -44 -108 -44 -24 0 -32 -26 -19 -56 15 -31 6 -53 -23 -60 -13 -3 -54 -26 -91 -50 -37 -24 -69 -44 -72 -44 -2 0 -21 -13 -42 -30 -21 -16 -41 -30 -44 -30 -4 0 -29 -17 -57 -37 l-51 -38 6 -185 c7 -252 21 -442 35 -468 6 -11 11 -42 11 -67 0 -42 9 -91 41 -220 6 -22 14 -62 19 -89 5 -27 14 -54 20 -60 5 -5 10 -22 10 -36 0 -14 7 -35 15 -46 8 -10 15 -29 15 -41 0 -12 6 -34 14 -50 7 -15 20 -44 29 -63 38 -88 59 -130 68 -136 5 -3 9 -11 9 -19 0 -15 60 -107 94 -145 13 -14 31 -38 40 -55 16 -27 98 -91 179 -139 37 -22 112 -46 144 -46 12 0 34 -5 50 -11 26 -10 27 -11 10 -24 -10 -7 -33 -16 -52 -19 -51 -10 -226 -97 -244 -122 -8 -13 -89 -64 -99 -64 -4 0 -16 6 -26 13 -15 11 -15 17 -6 42 31 78 62 232 53 264 -3 12 -13 21 -24 21 -15 0 -19 -7 -19 -35 0 -24 -6 -37 -20 -45 -15 -8 -20 -21 -20 -49 0 -26 -5 -41 -15 -45 -11 -4 -15 -17 -13 -42 1 -25 -3 -39 -15 -45 -11 -7 -17 -23 -17 -48 0 -25 -5 -41 -15 -45 -9 -3 -15 -18 -15 -39 0 -19 -7 -40 -15 -47 -8 -7 -15 -21 -15 -32 0 -10 -7 -21 -15 -24 -9 -4 -17 -26 -21 -55 -4 -28 -14 -55 -25 -65 -21 -19 -26 -48 -6 -42 6 3 18 17 25 31 7 15 19 27 26 27 7 0 25 16 40 35 16 19 36 35 45 35 9 1 27 14 41 30 13 17 31 30 40 30 9 0 29 14 45 30 16 17 36 30 46 30 9 0 35 20 58 45 23 25 50 45 60 45 17 0 91 66 91 82 0 4 11 8 25 8 16 0 34 12 52 35 19 24 33 33 45 29 12 -3 21 1 25 13 4 10 15 24 26 32 16 11 18 21 12 65 -11 94 -38 211 -52 227 -7 8 -13 21 -13 27 0 7 -11 30 -24 51 -48 75 -104 121 -147 121 -48 0 -47 -5 -68 290 -5 74 -14 162 -20 195 -6 33 -11 95 -11 138 0 43 -10 134 -21 203 -17 95 -19 128 -10 137 13 13 7 16 113 -64 40 -30 101 -72 135 -93 43 -26 65 -46 69 -63 4 -14 4 -95 2 -180 -6 -168 -3 -177 52 -166 30 5 80 -12 80 -27 0 -18 64 -110 76 -110 19 0 22 20 14 100 -5 41 -10 117 -13 168 -6 106 -1 112 62 64 46 -37 201 -142 207 -142 3 0 21 -12 40 -26 l34 -26 0 -137 0 -137 -38 -17 c-46 -20 -172 -143 -172 -167 0 -10 -7 -23 -15 -30 -13 -10 -13 -15 -1 -32 8 -11 25 -26 38 -34 53 -30 108 -54 123 -54 9 0 30 -7 46 -16 57 -29 271 -12 339 27 8 5 26 14 40 20 14 6 39 21 56 34 34 26 84 42 174 55 30 5 73 13 95 19 22 5 67 15 100 21 117 21 140 26 162 38 12 7 33 12 46 12 24 0 77 14 178 45 26 8 57 15 70 15 13 1 35 7 49 15 14 8 37 14 51 15 14 0 34 7 45 15 10 8 31 15 45 15 14 0 55 15 90 33 l64 34 0 124 c0 142 -21 370 -40 444 -15 57 -32 131 -44 190 -5 22 -16 57 -25 77 -9 21 -16 40 -16 43 0 2 18 16 40 30 l41 26 -19 37 c-17 34 -30 62 -66 145 -35 78 -76 169 -120 259 -25 53 -46 100 -46 103 0 31 -133 135 -173 135 -8 0 -20 7 -27 15 -7 8 -21 15 -30 15 -10 0 -31 6 -47 14 -15 8 -46 22 -68 31 -22 10 -53 24 -68 31 -16 8 -37 14 -46 14 -10 0 -29 8 -42 19 -23 18 -24 22 -19 120 3 56 10 105 15 109 6 4 29 30 50 57 22 28 42 52 45 55 12 11 66 98 75 120 4 8 11 22 16 30 5 8 12 22 15 30 3 8 10 23 15 32 46 87 82 238 95 402 l7 79 109 -6 c127 -8 148 -1 148 45 0 26 -12 44 -62 93 -57 55 -91 76 -180 113 -16 7 -43 36 -63 66 -60 94 -159 163 -301 209 -66 22 -228 23 -264 2z m-427 -2336 c7 -6 49 -33 95 -60 66 -41 82 -55 82 -75 0 -13 8 -28 18 -33 10 -5 24 -20 31 -33 16 -31 101 -65 181 -72 35 -3 72 -16 91 -32 15 -13 63 -42 147 -85 23 -13 41 -27 39 -32 -1 -5 -32 -18 -67 -29 -67 -20 -121 -40 -177 -64 -17 -8 -37 -14 -45 -14 -7 0 -22 -7 -32 -15 -11 -8 -28 -15 -37 -15 -10 0 -30 -6 -46 -14 -15 -8 -48 -22 -73 -32 -25 -9 -59 -23 -77 -30 -17 -8 -34 -14 -39 -14 -4 0 -31 -11 -61 -26 -56 -26 -76 -26 -109 4 -18 16 -86 63 -126 87 -9 5 -49 30 -89 55 -39 25 -90 56 -112 69 -22 13 -69 43 -104 67 -35 24 -91 64 -126 88 -76 52 -135 87 -200 118 -27 13 -46 29 -45 37 4 18 80 41 138 41 25 0 74 6 110 14 107 24 171 37 242 46 37 5 76 13 87 19 11 6 38 11 60 11 22 0 60 6 83 14 77 26 135 28 161 5z m720 -654 l1 -180 -30 -14 c-16 -7 -42 -20 -57 -27 -16 -8 -35 -14 -42 -14 -7 0 -26 -6 -42 -14 -27 -13 -75 -34 -138 -61 -16 -6 -51 -22 -76 -34 -41 -19 -52 -20 -105 -10 -35 7 -95 9 -146 5 l-88 -7 0 124 c0 127 6 147 42 147 9 0 32 6 50 14 18 8 49 21 70 30 20 9 41 16 46 16 6 0 23 6 39 14 15 8 48 22 73 32 25 9 59 23 77 30 17 8 36 14 41 14 6 0 23 6 39 14 15 8 51 24 79 35 28 11 71 31 95 45 73 40 72 44 72 -159z"/> <path d="M3600 8330 c-24 -24 -25 -36 -5 -44 12 -4 55 8 74 21 6 4 -31 43 -41 43 -4 0 -17 -9 -28 -20z"/> <path d="M1470 7942 c0 -15 12 -27 43 -40 24 -10 81 -45 127 -77 47 -33 99 -68 116 -80 16 -11 51 -37 76 -58 25 -20 49 -37 54 -37 5 0 24 -13 42 -30 18 -16 38 -30 44 -30 6 0 28 -16 50 -36 22 -20 55 -42 74 -50 18 -8 41 -25 50 -39 19 -30 64 -35 64 -7 0 17 -56 62 -78 62 -6 0 -18 10 -26 21 -16 24 -90 69 -112 69 -8 0 -14 4 -14 8 0 8 -132 111 -155 122 -31 14 -145 106 -145 116 0 7 -9 16 -21 19 -30 10 -17 30 22 31 19 1 184 5 368 8 183 3 336 8 339 11 5 5 -190 7 -483 5 -147 -1 -368 13 -412 26 -19 5 -23 2 -23 -14z"/> <path d="M2445 7921 c49 -12 335 -13 335 -1 0 6 -67 10 -182 9 -101 -1 -169 -4 -153 -8z"/> <path d="M2833 7923 c15 -2 37 -2 50 0 12 2 0 4 -28 4 -27 0 -38 -2 -22 -4z"/> <path d="M5078 7899 c-19 -12 8 -17 87 -14 44 1 99 -3 123 -8 31 -7 47 -6 54 1 7 7 9 15 5 18 -8 9 -256 11 -269 3z"/> <path d="M5670 7870 l-75 -5 79 -7 c116 -11 306 -10 306 2 0 6 -10 11 -22 11 -69 4 -223 4 -288 -1z"/> <path d="M6085 7840 c-4 -6 27 -10 87 -10 64 0 88 3 78 10 -20 13 -157 13 -165 0z"/> <path d="M6400 7841 c-104 -5 -110 -7 -60 -13 96 -12 224 -17 245 -8 19 7 18 9 -8 19 -16 6 -36 10 -45 9 -9 -1 -69 -4 -132 -7z"/> <path d="M6629 7817 c12 -12 136 -27 159 -19 7 2 11 10 9 16 -2 7 -37 12 -92 13 -69 2 -86 0 -76 -10z"/> <path d="M6830 7809 c0 -4 48 -10 108 -13 59 -4 129 -11 157 -15 31 -6 57 -5 68 1 12 6 29 6 49 -1 36 -13 68 3 48 23 -12 12 -430 17 -430 5z"/> <path d="M7296 7785 c-17 -13 -17 -15 -3 -21 10 -3 17 -15 17 -27 0 -19 -4 -20 -73 -14 -47 4 -77 3 -84 -4 -7 -7 -47 -8 -129 -1 -76 7 -137 7 -169 1 -27 -5 -57 -6 -65 -3 -18 8 -170 12 -170 4 0 -3 -35 -6 -77 -6 -43 -1 -91 -2 -108 -3 -16 -2 -120 -1 -230 2 -330 9 -1116 10 -1177 2 -64 -8 -76 -21 -25 -29 17 -3 1087 -8 2377 -11 2260 -5 2527 -7 2892 -20 92 -3 179 -3 194 1 27 7 26 8 -17 21 -30 9 -132 15 -329 19 -157 3 -312 9 -345 14 -33 5 -148 10 -255 11 -107 1 -253 5 -325 9 -71 5 -238 11 -370 15 -132 3 -319 10 -415 15 -96 5 -253 12 -348 15 -95 2 -176 6 -180 9 -4 2 -133 6 -287 10 -237 5 -283 4 -299 -9z m272 -40 c11 -11 -8 -14 -98 -17 -82 -3 -95 -1 -98 14 -3 15 7 16 94 12 53 -2 100 -6 102 -9z m252 -5 c0 -5 -13 -10 -30 -10 -16 0 -30 5 -30 10 0 6 14 10 30 10 17 0 30 -4 30 -10z"/> <path d="M2476 7702 c-8 -14 53 -24 72 -12 15 8 15 9 -3 10 -11 0 -30 3 -41 6 -12 3 -24 1 -28 -4z"/> <path d="M10548 7663 c12 -2 30 -2 40 0 9 3 -1 5 -23 4 -22 0 -30 -2 -17 -4z"/> <path d="M5739 7330 c-263 -5 -266 -5 -302 -30 -50 -34 -107 -130 -107 -180 0 -51 32 -112 76 -145 34 -26 37 -26 175 -24 119 2 142 0 156 -14 13 -13 15 -23 7 -44 l-10 -28 -214 -1 c-213 -1 -214 -2 -234 -26 -51 -60 -81 -101 -81 -111 0 -9 82 -13 307 -15 l306 -2 49 47 c94 92 105 217 26 298 l-34 35 -144 0 c-79 0 -150 3 -159 6 -22 9 -20 47 4 69 18 17 36 18 215 12 l194 -5 66 70 c36 38 65 76 65 84 0 10 -12 13 -47 12 -27 -1 -168 -5 -314 -8z"/> <path d="M6163 7300 c-8 -19 -17 -48 -20 -65 -3 -16 -12 -39 -20 -50 -7 -11 -13 -29 -13 -40 0 -11 -7 -29 -15 -39 -8 -11 -15 -29 -15 -41 0 -12 -7 -30 -15 -41 -8 -10 -15 -31 -15 -46 0 -15 -4 -29 -9 -33 -5 -3 -13 -20 -17 -38 -7 -35 -26 -81 -56 -139 -11 -21 -16 -42 -13 -48 3 -6 51 -10 110 -10 l104 0 16 30 c8 16 15 38 15 48 0 11 7 33 15 48 8 16 15 38 15 50 0 11 9 29 19 38 17 15 45 18 213 19 178 2 196 4 231 24 47 26 94 77 113 122 31 74 9 182 -46 223 -23 17 -50 19 -304 21 l-278 2 -15 -35z m531 -115 c-6 -16 -24 -21 -24 -7 0 11 11 22 21 22 5 0 6 -7 3 -15z m-93 -21 c17 -15 17 -19 3 -45 l-15 -29 -99 0 -99 0 -45 -45 c-43 -43 -69 -55 -80 -37 -3 5 8 35 24 68 17 32 30 64 30 70 0 28 27 34 144 34 96 0 123 -3 137 -16z"/> <path d="M6968 7322 c-6 -7 -14 -29 -18 -50 -8 -38 -24 -84 -47 -139 -7 -17 -13 -38 -13 -46 0 -9 -4 -18 -9 -22 -5 -3 -12 -19 -16 -36 -4 -17 -13 -42 -21 -57 -8 -15 -14 -34 -14 -42 0 -8 -7 -24 -15 -34 -8 -11 -15 -26 -15 -33 0 -7 -13 -42 -30 -76 -16 -35 -30 -67 -30 -70 0 -4 133 -7 294 -7 l295 0 66 66 c65 66 81 102 40 96 -11 -1 -112 -5 -224 -9 -198 -6 -204 -5 -197 13 5 10 13 32 18 47 l10 28 124 -2 123 -2 43 42 c24 23 58 52 75 64 18 12 31 27 29 32 -2 6 -52 9 -129 8 l-126 -2 -42 -46 c-23 -25 -48 -45 -56 -45 -21 0 -27 29 -10 48 8 9 18 28 22 42 3 14 14 40 23 59 l17 34 180 -6 c161 -6 182 -4 202 11 30 24 113 124 113 136 0 17 -648 15 -662 -2z"/> <path d="M7689 7295 c-10 -22 -19 -49 -19 -60 0 -11 -7 -29 -15 -39 -8 -11 -15 -29 -15 -40 0 -12 -7 -30 -15 -40 -8 -11 -15 -29 -15 -40 0 -12 -7 -30 -15 -40 -8 -11 -15 -29 -15 -40 0 -12 -7 -30 -15 -40 -8 -11 -15 -28 -15 -38 0 -17 -11 -46 -55 -143 -13 -27 -21 -53 -19 -57 3 -5 137 -8 297 -8 l292 0 56 58 c68 71 73 80 60 96 -8 9 -27 10 -73 5 -49 -6 -276 -12 -345 -9 -16 0 -17 44 -3 71 10 17 22 19 135 19 l124 0 43 40 c24 22 58 50 75 63 62 42 46 49 -94 44 l-126 -4 -39 -41 c-48 -52 -77 -69 -88 -51 -9 14 -2 39 11 39 5 0 9 6 9 13 0 6 6 24 14 38 7 14 16 37 20 52 9 37 33 41 221 34 l162 -7 31 28 c38 34 102 113 102 127 0 6 -115 10 -327 10 l-326 0 -18 -40z"/> <path d="M8431 7325 c-4 -5 -16 -37 -26 -70 -11 -33 -25 -69 -32 -80 -7 -11 -13 -29 -13 -40 0 -12 -5 -26 -11 -32 -6 -6 -14 -26 -19 -44 -5 -19 -18 -59 -30 -89 -12 -30 -24 -66 -27 -80 -3 -14 -12 -34 -19 -45 -8 -11 -14 -29 -14 -41 0 -12 -7 -27 -15 -34 -8 -7 -15 -23 -15 -36 l0 -24 181 0 c264 0 381 35 495 149 86 86 163 209 165 263 1 18 4 44 8 58 17 58 -27 136 -83 145 -62 10 -538 10 -545 0z m497 -154 c3 -8 -1 -12 -9 -9 -7 2 -15 10 -17 17 -3 8 1 12 9 9 7 -2 15 -10 17 -17z m-105 -9 c18 -16 23 -47 8 -56 -5 -3 -12 -17 -15 -31 -7 -27 -33 -62 -77 -105 -40 -37 -49 -44 -104 -69 -27 -12 -58 -27 -67 -32 -22 -11 -85 -12 -92 -1 -3 4 2 19 9 33 8 13 17 31 20 39 4 8 13 27 21 42 8 14 14 33 14 41 0 8 7 28 15 43 8 16 15 39 15 52 0 45 27 57 135 59 77 1 104 -3 118 -15z"/> <path d="M9514 7330 l-261 -5 -40 -28 c-23 -16 -44 -36 -47 -45 -4 -9 -15 -33 -26 -52 -22 -41 -26 -116 -7 -157 6 -15 28 -43 47 -61 l35 -33 148 3 c122 2 150 0 157 -12 13 -20 12 -37 -1 -61 -10 -19 -20 -20 -221 -18 l-210 2 -59 -66 c-62 -68 -71 -87 -41 -87 9 0 149 0 311 0 273 1 297 2 325 20 43 27 77 73 98 132 15 45 16 54 3 91 -8 23 -15 49 -15 57 0 8 -17 29 -37 47 l-37 33 -146 0 c-149 0 -170 5 -170 40 0 9 9 25 20 35 18 17 36 18 214 12 l195 -6 70 76 c38 42 68 80 65 85 -3 4 -29 7 -57 6 -29 -1 -169 -5 -313 -8z"/> <path d="M10000 7331 c-20 -6 -140 -153 -134 -163 7 -10 105 -3 162 12 44 12 64 3 57 -24 -8 -27 -43 -113 -61 -148 -8 -14 -14 -35 -14 -45 0 -11 -7 -28 -15 -39 -8 -10 -15 -27 -15 -37 0 -19 -6 -32 -49 -115 -12 -23 -19 -47 -16 -52 3 -6 55 -10 115 -10 98 0 110 2 120 19 5 11 10 30 10 43 0 13 5 29 11 35 6 6 14 26 19 44 5 19 18 59 30 89 12 30 24 66 27 80 3 14 12 34 19 45 8 11 14 30 14 43 0 12 7 34 16 47 15 23 20 24 75 18 41 -4 68 -2 84 7 28 15 123 120 127 141 2 11 -50 13 -284 14 -158 0 -292 -2 -298 -4z m200 -131 c0 -13 -7 -20 -20 -20 -22 0 -23 1 -14 24 9 23 34 20 34 -4z"/> <path d="M10767 7305 c-18 -16 -61 -68 -97 -115 -35 -47 -69 -89 -76 -95 -6 -5 -46 -57 -90 -115 -78 -105 -87 -116 -163 -200 -41 -46 -51 -70 -28 -71 6 0 118 0 247 1 261 1 246 -3 296 76 38 60 58 55 64 -16 l5 -55 94 -3 c52 -1 100 -1 107 2 8 3 9 16 3 43 -19 92 -31 163 -39 238 -5 44 -14 96 -19 115 -6 19 -11 53 -11 75 0 37 -27 125 -43 141 -4 4 -54 8 -112 8 -103 1 -106 1 -138 -29z m117 -229 c-4 -34 -1 -74 10 -115 27 -106 32 -101 -89 -103 -58 -1 -113 -2 -122 -2 -31 -2 -26 37 10 74 47 50 97 116 97 129 0 6 5 11 10 11 6 0 10 7 10 15 0 9 11 27 25 41 38 38 57 18 49 -50z m-294 -241 c-12 -15 -40 -21 -40 -8 0 3 8 15 17 25 21 23 43 7 23 -17z"/> <path d="M11404 7315 c-8 -11 -14 -31 -14 -45 0 -15 -7 -35 -15 -46 -8 -10 -15 -28 -15 -40 0 -11 -7 -29 -15 -40 -8 -10 -15 -30 -15 -44 0 -14 -7 -34 -15 -44 -8 -11 -15 -29 -15 -41 0 -12 -5 -26 -11 -32 -6 -6 -14 -26 -19 -44 -12 -48 -38 -116 -65 -172 -16 -35 -19 -50 -11 -53 7 -3 59 -3 115 -2 l103 3 15 40 c8 22 18 56 23 75 18 76 31 110 43 110 7 0 65 -51 128 -114 l115 -114 109 -2 c143 -3 145 -3 145 15 0 8 -4 15 -9 15 -4 0 -44 33 -88 73 -44 39 -92 82 -107 95 -15 13 -26 28 -23 35 2 7 28 15 58 18 106 13 127 21 181 69 l53 47 -1 81 c-2 91 -24 141 -72 161 -17 7 -127 12 -296 13 -257 3 -269 2 -282 -17z m431 -141 c19 -20 19 -48 -1 -68 -12 -13 -38 -16 -118 -16 -101 0 -104 -1 -122 -27 -48 -67 -79 -87 -90 -58 -6 15 -3 27 16 55 5 8 20 40 34 71 l25 57 120 1 c96 0 123 -3 136 -15z"/> <path d="M7399 6490 c-14 -8 -16 -37 -15 -217 l2 -208 119 -5 c66 -3 125 -4 132 -2 14 4 23 36 16 62 -5 18 -14 20 -101 20 l-95 0 7 166 c7 172 3 194 -33 194 -9 0 -23 -5 -32 -10z"/> <path d="M8236 6487 c-17 -12 -18 -32 -18 -216 0 -216 1 -221 49 -221 12 0 25 5 28 11 4 6 7 102 7 214 0 112 -3 208 -7 214 -9 15 -37 14 -59 -2z"/> <path d="M8873 6484 c-3 -9 -1 -24 5 -33 7 -9 15 -23 18 -31 3 -8 12 -28 19 -45 7 -16 21 -50 30 -75 17 -44 26 -65 59 -143 9 -21 16 -46 16 -57 0 -28 52 -53 85 -40 14 5 28 18 31 27 11 35 46 122 77 193 8 19 25 60 37 90 12 30 26 59 31 65 5 5 9 22 9 37 0 29 -12 34 -58 22 -22 -6 -62 -78 -62 -111 0 -8 -6 -27 -14 -41 -11 -22 -33 -88 -52 -160 -2 -8 -10 -12 -17 -10 -15 6 -30 36 -52 108 -9 30 -23 71 -30 90 -7 19 -16 46 -19 60 -3 14 -15 35 -26 48 -25 26 -78 30 -87 6z"/> <path d="M11665 6490 c-3 -5 2 -23 12 -41 10 -17 25 -43 33 -57 18 -30 59 -98 78 -127 27 -43 34 -72 29 -128 -6 -64 7 -87 48 -87 34 0 45 27 38 93 -4 42 -2 62 9 75 7 9 25 39 38 65 27 52 40 75 70 122 44 68 47 95 10 95 -41 0 -66 -23 -100 -93 -37 -77 -61 -116 -71 -117 -4 0 -26 39 -49 88 -24 48 -49 95 -58 105 -16 18 -77 24 -87 7z"/> <path d="M5502 6478 c-8 -10 -11 -371 -3 -410 2 -13 187 -9 238 5 67 17 126 76 148 149 18 56 18 57 -5 118 -27 72 -79 119 -153 138 -64 16 -211 16 -225 0z m246 -89 c67 -52 81 -126 37 -191 -14 -21 -33 -42 -43 -47 -15 -8 -98 -14 -154 -12 -16 1 -18 14 -18 136 l0 135 76 0 c62 0 81 -4 102 -21z"/> <path d="M6485 6479 c-7 -11 -11 -407 -4 -413 2 -2 73 -6 158 -7 149 -4 154 -3 162 18 4 11 5 31 2 43 -6 22 -9 22 -122 19 l-116 -4 -3 54 -3 54 105 -7 106 -7 0 40 c0 22 -4 42 -9 45 -4 3 -47 2 -95 -2 -47 -4 -91 -5 -97 -1 -6 3 -9 28 -7 55 l3 48 115 1 115 0 0 35 0 35 -152 3 c-103 2 -154 -1 -158 -9z"/> <path d="M9869 6483 c-4 -32 -3 -407 1 -413 3 -4 74 -9 159 -11 144 -3 155 -2 161 15 4 11 4 31 2 44 -5 24 -5 24 -121 21 l-116 -4 -3 54 -3 53 103 -3 103 -4 0 40 c0 45 5 44 -135 34 l-65 -4 0 55 0 54 115 1 115 0 0 35 0 35 -157 3 c-87 1 -158 -1 -159 -5z"/> <path d="M10776 6482 c-3 -5 -6 -100 -7 -212 -1 -216 0 -220 48 -220 30 0 38 16 38 80 l0 55 48 3 c57 4 73 -7 97 -63 24 -56 51 -77 92 -73 27 2 33 7 31 24 -1 12 -18 39 -38 59 -19 21 -35 46 -35 57 0 11 16 34 35 52 32 31 35 38 35 93 0 54 -3 64 -32 95 -18 20 -46 39 -63 43 -45 12 -242 18 -249 7z m248 -94 c21 -30 20 -81 -1 -106 -15 -17 -32 -21 -93 -24 l-75 -3 -3 78 -3 77 80 0 c71 0 82 -2 95 -22z"/> <path d="M5284 6016 c4 -54 11 -107 17 -118 6 -11 16 -41 24 -66 7 -26 17 -60 23 -77 6 -16 20 -61 32 -100 12 -38 26 -79 30 -90 5 -11 13 -36 19 -55 24 -85 54 -188 66 -225 8 -22 16 -59 18 -82 5 -40 4 -43 -20 -43 -30 0 -55 13 -113 59 -25 20 -52 41 -61 46 -45 28 -136 95 -148 109 -7 9 -21 16 -30 16 -9 0 -35 17 -58 38 -41 36 -66 54 -148 100 -22 13 -56 38 -75 56 -90 84 -312 208 -333 187 -15 -15 20 -61 61 -82 17 -9 48 -33 69 -53 21 -20 43 -36 51 -36 7 0 25 -12 39 -26 15 -15 40 -32 57 -39 17 -8 47 -30 65 -49 19 -20 41 -36 48 -36 7 0 27 -13 45 -30 17 -16 40 -30 50 -30 11 0 38 -20 60 -45 23 -25 49 -45 59 -45 10 0 32 -13 49 -30 17 -16 39 -30 50 -30 10 0 33 -18 50 -40 19 -25 44 -43 61 -47 15 -3 46 -25 69 -49 23 -24 50 -44 60 -44 10 0 28 -13 40 -30 12 -16 30 -30 40 -30 10 0 36 -20 58 -45 44 -50 96 -74 106 -48 3 8 -3 26 -14 40 -11 14 -20 36 -20 48 0 12 -7 28 -15 35 -8 7 -15 27 -15 45 0 19 -8 39 -20 50 -13 12 -19 29 -18 47 2 19 -4 33 -14 39 -12 7 -15 18 -11 43 4 28 1 36 -16 46 -18 9 -21 17 -16 39 4 19 1 34 -9 44 -9 9 -16 29 -16 44 0 16 -7 38 -15 49 -8 10 -15 31 -15 45 0 14 -7 34 -15 45 -8 10 -15 31 -15 45 0 14 -7 34 -15 45 -8 10 -15 33 -15 50 0 17 -7 37 -15 44 -8 7 -15 25 -15 39 0 15 -7 36 -15 47 -8 10 -15 33 -15 49 0 17 -7 39 -15 49 -8 11 -15 29 -15 40 0 12 -7 30 -15 40 -8 11 -15 30 -15 41 0 12 -10 30 -21 41 l-22 19 7 -99z"/> <path d="M5105 5900 c-4 -18 0 -40 9 -59 9 -16 16 -40 16 -52 0 -12 6 -27 13 -33 12 -10 34 -57 52 -111 6 -18 8 -18 22 9 12 23 13 37 5 65 -6 20 -16 56 -23 81 -15 51 -54 116 -74 124 -9 3 -16 -5 -20 -24z"/> <path d="M2985 5880 c-9 -15 4 -50 20 -50 16 0 46 40 39 52 -7 11 -52 10 -59 -2z"/> <path d="M3316 5820 c-21 -22 -47 -40 -58 -40 -11 0 -31 -13 -45 -30 -13 -16 -31 -30 -38 -30 -18 0 -47 -42 -36 -53 4 -4 31 -1 59 8 42 14 66 32 127 97 41 44 75 82 75 84 0 2 -10 4 -22 4 -14 0 -39 -17 -62 -40z"/> <path d="M4808 5822 c-10 -2 -18 -9 -18 -16 0 -19 68 -84 127 -122 28 -19 54 -38 58 -44 3 -5 14 -10 24 -10 10 0 28 -11 40 -24 29 -31 67 -40 103 -25 37 15 35 25 -7 33 -22 4 -47 20 -67 41 -17 19 -36 35 -43 35 -6 0 -24 14 -40 30 -16 17 -39 30 -52 30 -12 0 -27 8 -32 19 -14 25 -71 58 -93 53z"/> <path d="M3383 5643 c-12 -2 -27 -11 -33 -19 -7 -8 -20 -14 -29 -14 -19 0 -171 -151 -171 -169 0 -27 32 -23 64 8 17 17 40 31 49 31 10 0 37 20 60 45 24 25 52 45 63 45 17 0 64 54 64 73 0 7 -30 7 -67 0z"/> </g> </svg> 